<svg width="19" height="19" viewBox="0 0 19 19" fill="none" xmlns="http://www.w3.org/2000/svg">
<path fill-rule="evenodd" clip-rule="evenodd" d="M5.39718 12.3738C5.39718 12.3738 10.7204 19.4441 14.6882 18.2754C14.6882 18.2754 15.8427 17.6436 16.0909 16.8565C16.339 16.0694 15.6091 15.3731 15.3223 15.1292C14.6361 14.5434 13.9222 13.9835 13.216 13.4173C12.9929 13.238 12.6004 12.9817 12.2936 13.0001C12.2936 13.0001 11.9622 12.9557 11.7936 13.0001C11.1923 13.1561 10.8151 13.4419 10.1707 13.5733C10.1707 13.5733 9.59333 13.28 7.70391 10.7766C5.69658 8.11661 6.17779 7.3581 6.17779 7.3581C6.56824 7.01535 6.93397 6.64846 7.2558 6.24995C7.39423 6.07814 7.57014 5.92019 7.66885 5.72338C7.76878 5.52583 7.67236 5.35279 7.60218 5.1496C7.44693 4.69561 7.27457 4.24619 7.09191 3.79972C6.77743 3.02837 6.459 2.22607 6.00829 1.50515C5.96067 1.42995 5.85755 1.2118 5.74207 1.19791C4.46889 1.03776 3.01624 1.93719 3.01624 1.93719C0.466145 4.77522 5.39718 12.3738 5.39718 12.3738Z" fill="#7EDAEE"/>
</svg>
