<svg width="628" height="105" viewBox="0 0 628 105" fill="red" xmlns="http://www.w3.org/2000/svg">
<path d="M53.49 53.695V54.695H54.9043L54.4328 53.3616L53.49 53.695ZM44.855 29.275L45.7978 28.9416L45.791 28.9225L45.7835 28.9036L44.855 29.275ZM43.205 24.765L42.2523 25.069L42.2553 25.0782L42.2584 25.0873L43.205 24.765ZM41.61 19.155L42.5791 18.9083L40.6399 18.9125L41.61 19.155ZM39.96 24.875L39.0112 24.5587L39.0073 24.571L39.96 24.875ZM38.365 29.385L37.4365 29.0136L37.4289 29.0327L37.422 29.0522L38.365 29.385ZM29.785 53.695L28.842 53.3622L28.3716 54.695H29.785V53.695ZM81.21 84V85H82.6735L82.1416 83.6366L81.21 84ZM64.875 83.01L64.2543 83.794L64.2722 83.8082L64.2907 83.8215L64.875 83.01ZM62.895 80.37L61.9523 80.7035L61.961 80.7282L61.971 80.7523L62.895 80.37ZM57.505 65.135L58.4477 64.8015L58.212 64.135H57.505V65.135ZM25.715 65.135V64.135H25.0081L24.7723 64.8015L25.715 65.135ZM20.325 80.37L21.2535 80.7414L21.261 80.7226L21.2677 80.7035L20.325 80.37ZM18.4 82.9L19.0247 83.6809L19.034 83.6734L19.0432 83.6657L18.4 82.9ZM2.01 84L1.07859 83.636L0.545598 85H2.01V84ZM33.195 4.19499V3.19499H32.5121L32.2636 3.83103L33.195 4.19499ZM50.08 4.19499L51.0116 3.83159L50.7633 3.19499H50.08V4.19499ZM54.4328 53.3616L45.7978 28.9416L43.9122 29.6084L52.5472 54.0284L54.4328 53.3616ZM45.7835 28.9036C45.2783 27.6406 44.7343 26.1544 44.1516 24.4427L42.2584 25.0873C42.849 26.8223 43.4051 28.3427 43.9265 29.6464L45.7835 28.9036ZM44.1577 24.461C43.6145 22.7591 43.0882 20.9085 42.5791 18.9083L40.6409 19.4017C41.1584 21.4348 41.6955 23.3242 42.2523 25.069L44.1577 24.461ZM40.6399 18.9125C40.1319 20.9443 39.5889 22.8261 39.0113 24.5588L40.9087 25.1912C41.5045 23.4039 42.0614 21.4723 42.5801 19.3975L40.6399 18.9125ZM39.0073 24.571C38.4625 26.2781 37.9388 27.758 37.4365 29.0136L39.2935 29.7564C39.8179 28.4454 40.3575 26.9186 40.9127 25.179L39.0073 24.571ZM37.422 29.0522L28.842 53.3622L30.728 54.0278L39.308 29.7178L37.422 29.0522ZM29.785 54.695L53.49 54.695V52.695L29.785 52.695V54.695ZM81.21 83H68.395V85H81.21V83ZM68.395 83C67.1186 83 66.1653 82.7068 65.4593 82.1985L64.2907 83.8215C65.418 84.6332 66.8114 85 68.395 85V83ZM65.4957 82.226C64.7529 81.6379 64.1955 80.8976 63.819 79.9876L61.971 80.7523C62.4745 81.9691 63.2371 82.9888 64.2543 83.794L65.4957 82.226ZM63.8377 80.0365L58.4477 64.8015L56.5623 65.4685L61.9523 80.7035L63.8377 80.0365ZM57.505 64.135L25.715 64.135V66.135L57.505 66.135V64.135ZM24.7723 64.8015L19.3823 80.0365L21.2677 80.7035L26.6577 65.4685L24.7723 64.8015ZM19.3965 79.9986C19.1027 80.7331 18.5739 81.4479 17.7568 82.1343L19.0432 83.6657C20.0594 82.8121 20.8139 81.8403 21.2535 80.7414L19.3965 79.9986ZM17.7753 82.1191C17.0676 82.6853 16.1454 83 14.935 83V85C16.5113 85 17.8991 84.5814 19.0247 83.6809L17.7753 82.1191ZM14.935 83H2.01L2.01 85H14.935V83ZM2.94141 84.364L34.1264 4.55896L32.2636 3.83103L1.07859 83.636L2.94141 84.364ZM33.195 5.19499L50.08 5.19499V3.19499L33.195 3.19499V5.19499ZM49.1484 4.5584L80.2784 84.3634L82.1416 83.6366L51.0116 3.83159L49.1484 4.5584ZM125.86 42.035H126.86V41.662L126.615 41.3801L125.86 42.035ZM121.185 38.57L120.813 39.4985L120.82 39.5012L121.185 38.57ZM110.9 38.625L110.479 37.7177L110.9 38.625ZM106.995 41.925L106.188 41.3345L106.185 41.338L106.995 41.925ZM104.52 47.59L103.55 47.3438L104.52 47.59ZM106.39 69.205L105.551 69.7492L105.556 69.7571L105.561 69.7649L106.39 69.205ZM109.69 72.175L109.253 73.0745L109.263 73.0796L109.274 73.0845L109.69 72.175ZM120.69 71.46L120.188 70.5949L120.18 70.5994L120.69 71.46ZM125.86 66.95L126.629 67.5888L126.86 67.311V66.95H125.86ZM141.04 1.995H142.04V0.994997H141.04V1.995ZM141.04 84V85H142.04V84H141.04ZM127.95 81.36L126.981 81.6076L126.987 81.6331L126.995 81.6583L127.95 81.36ZM126.685 76.41L127.654 76.1624L127.195 74.3665L125.946 75.7362L126.685 76.41ZM123.055 79.82L122.43 79.0391L122.424 79.0436L122.419 79.0481L123.055 79.82ZM118.985 82.515L119.432 83.4094L119.441 83.405L119.45 83.4004L118.985 82.515ZM93.7947 77.29L92.989 77.8824L92.994 77.8891L92.999 77.8957L93.7947 77.29ZM89.5047 68.16L90.4662 67.8853L89.5047 68.16ZM89.6697 44.07L88.7181 43.7624L88.7154 43.7712L89.6697 44.07ZM94.6197 34.665L95.3984 35.2923L94.6197 34.665ZM102.32 28.45L102.767 29.3444L102.32 28.45ZM120.085 27.57L119.683 28.4858L119.689 28.4883L120.085 27.57ZM125.86 31.31L125.185 32.0478L126.86 33.5803V31.31H125.86ZM125.86 1.995V0.994997H124.86V1.995H125.86ZM126.615 41.3801C125.101 39.6326 123.415 38.3688 121.549 37.6388L120.82 39.5012C122.328 40.0912 123.758 41.1374 125.104 42.6899L126.615 41.3801ZM121.556 37.6415C119.782 36.9318 117.895 36.58 115.905 36.58V38.58C117.654 38.58 119.288 38.8882 120.813 39.4985L121.556 37.6415ZM115.905 36.58C113.942 36.58 112.128 36.9537 110.479 37.7177L111.32 39.5323C112.678 38.9029 114.201 38.58 115.905 38.58V36.58ZM110.479 37.7177C108.804 38.494 107.375 39.7118 106.188 41.3345L107.802 42.5155C108.814 41.1315 109.989 40.1493 111.32 39.5323L110.479 37.7177ZM106.185 41.338C105.028 42.9339 104.159 44.9479 103.55 47.3438L105.489 47.8362C106.054 45.6121 106.835 43.8494 107.804 42.512L106.185 41.338ZM103.55 47.3438C102.938 49.7562 102.64 52.5931 102.64 55.84H104.64C104.64 52.7069 104.928 50.0438 105.489 47.8362L103.55 47.3438ZM102.64 55.84C102.64 59.0386 102.881 61.7907 103.377 64.0817L105.332 63.6582C104.875 61.5493 104.64 58.9481 104.64 55.84H102.64ZM103.377 64.0817C103.87 66.357 104.585 68.2597 105.551 69.7492L107.229 68.6608C106.435 67.437 105.792 65.783 105.332 63.6582L103.377 64.0817ZM105.561 69.7649C106.561 71.2454 107.789 72.3636 109.253 73.0745L110.127 71.2755C109.024 70.7397 108.051 69.878 107.218 68.6451L105.561 69.7649ZM109.274 73.0845C110.702 73.7374 112.276 74.055 113.98 74.055V72.055C112.53 72.055 111.244 71.7859 110.105 71.2655L109.274 73.0845ZM113.98 74.055C116.786 74.055 119.21 73.4975 121.199 72.3206L120.18 70.5994C118.576 71.5491 116.527 72.055 113.98 72.055V74.055ZM121.191 72.325C123.144 71.1925 124.955 69.6058 126.629 67.5888L125.09 66.3112C123.538 68.1809 121.902 69.6008 120.188 70.595L121.191 72.325ZM126.86 66.95V42.035H124.86V66.95H126.86ZM140.04 1.995L140.04 84H142.04L142.04 1.995H140.04ZM141.04 83L131.69 83V85L141.04 85V83ZM131.69 83C130.868 83 130.288 82.815 129.874 82.523C129.465 82.2344 129.128 81.777 128.904 81.0617L126.995 81.6583C127.322 82.703 127.883 83.5656 128.721 84.157C129.554 84.745 130.568 85 131.69 85V83ZM128.919 81.1124L127.654 76.1624L125.716 76.6576L126.981 81.6076L128.919 81.1124ZM125.946 75.7362C124.843 76.9453 123.671 78.046 122.43 79.0391L123.679 80.6009C125.005 79.5407 126.253 78.368 127.424 77.0838L125.946 75.7362ZM122.419 79.0481C121.227 80.0301 119.927 80.8906 118.52 81.6296L119.45 83.4004C120.975 82.5993 122.389 81.6633 123.69 80.5919L122.419 79.0481ZM118.537 81.6206C117.143 82.3178 115.639 82.8608 114.022 83.2474L114.487 85.1926C116.244 84.7725 117.893 84.1788 119.432 83.4094L118.537 81.6206ZM114.022 83.2474C112.421 83.6302 110.667 83.825 108.755 83.825V85.825C110.802 85.825 112.715 85.6165 114.487 85.1926L114.022 83.2474ZM108.755 83.825C105.857 83.825 103.227 83.2153 100.847 82.0082L99.9423 83.7918C102.623 85.1514 105.566 85.825 108.755 85.825V83.825ZM100.847 82.0082C98.4632 80.799 96.3772 79.0317 94.5904 76.6843L92.999 77.8957C94.9522 80.4616 97.2662 82.4344 99.9423 83.7918L100.847 82.0082ZM94.6003 76.6976C92.8504 74.3176 91.4668 71.3873 90.4662 67.8853L88.5432 68.4347C89.5959 72.1193 91.0723 75.2757 92.989 77.8824L94.6003 76.6976ZM90.4662 67.8853C89.4703 64.3994 88.9647 60.3881 88.9647 55.84H86.9647C86.9647 60.5319 87.4858 64.7339 88.5432 68.4347L90.4662 67.8853ZM88.9647 55.84C88.9647 51.7138 89.5207 47.8922 90.624 44.3688L88.7154 43.7712C87.5453 47.5078 86.9647 51.5329 86.9647 55.84H88.9647ZM90.6212 44.3776C91.7617 40.8493 93.3574 37.826 95.3984 35.2923L93.8409 34.0377C91.6286 36.784 89.9244 40.0307 88.7182 43.7624L90.6212 44.3776ZM95.3984 35.2923C97.4358 32.7631 99.8898 30.783 102.767 29.3444L101.872 27.5556C98.7363 29.1237 96.0569 31.2868 93.8409 34.0377L95.3984 35.2923ZM102.767 29.3444C105.622 27.9167 108.804 27.195 112.33 27.195V25.195C108.522 25.195 105.03 25.9767 101.872 27.5556L102.767 29.3444ZM112.33 27.195C115.317 27.195 117.756 27.6404 119.683 28.4858L120.486 26.6542C118.234 25.6662 115.502 25.195 112.33 25.195V27.195ZM119.689 28.4883C121.712 29.3604 123.543 30.5458 125.185 32.0478L126.535 30.5722C124.73 28.9209 122.711 27.6129 120.481 26.6517L119.689 28.4883ZM126.86 31.31L126.86 1.995H124.86L124.86 31.31H126.86ZM125.86 2.995H141.04V0.994997H125.86V2.995ZM211.361 27.295L212.292 27.6606L212.829 26.295H211.361V27.295ZM189.086 84V85H189.768L190.017 84.3656L189.086 84ZM175.336 84L174.406 84.3656L174.655 85H175.336V84ZM153.061 27.295V26.295H151.594L152.131 27.6606L153.061 27.295ZM168.406 28.065L168.98 27.2458V27.2458L168.406 28.065ZM169.946 30.045L170.893 29.7238L170.89 29.7135L170.886 29.7033L169.946 30.045ZM179.461 58.095L180.412 57.7842L180.408 57.7738L179.461 58.095ZM181.111 63.705L180.144 63.9566L180.145 63.9614L181.111 63.705ZM182.376 69.15L181.396 69.3461L183.353 69.3649L182.376 69.15ZM183.696 63.705L182.733 63.4353L182.73 63.4486L183.696 63.705ZM185.456 58.095L184.513 57.7638L184.512 57.7679L185.456 58.095ZM195.301 30.045L196.245 30.3762L196.25 30.3623L196.254 30.3482L195.301 30.045ZM196.786 28.065L196.213 27.2458V27.2458L196.786 28.065ZM210.431 26.9294L188.156 83.6344L190.017 84.3656L212.292 27.6606L210.431 26.9294ZM189.086 83H175.336V85H189.086V83ZM176.267 83.6344L153.992 26.9294L152.131 27.6606L174.406 84.3656L176.267 83.6344ZM153.061 28.295L165.656 28.295V26.295L153.061 26.295V28.295ZM165.656 28.295C166.599 28.295 167.303 28.5132 167.833 28.8842L168.98 27.2458C168.043 26.5902 166.914 26.295 165.656 26.295V28.295ZM167.833 28.8842C168.406 29.2852 168.787 29.7817 169.007 30.3867L170.886 29.7033C170.52 28.695 169.874 27.8715 168.98 27.2458L167.833 28.8842ZM168.999 30.3662L178.514 58.4162L180.408 57.7738L170.893 29.7238L168.999 30.3662ZM178.511 58.4057C179.128 60.294 179.672 62.1443 180.144 63.9566L182.079 63.4534C181.597 61.599 181.041 59.7093 180.412 57.7843L178.511 58.4057ZM180.145 63.9614C180.616 65.738 181.033 67.5329 181.396 69.3461L183.357 68.9539C182.986 67.1004 182.56 65.2653 182.078 63.4486L180.145 63.9614ZM183.353 69.3649C183.753 67.5453 184.19 65.7442 184.663 63.9614L182.73 63.4486C182.25 65.2591 181.806 67.088 181.4 68.9351L183.353 69.3649ZM184.659 63.9746C185.167 62.1617 185.748 60.3109 186.401 58.4221L184.512 57.7679C183.845 59.6924 183.253 61.5816 182.734 63.4354L184.659 63.9746ZM186.4 58.4262L196.245 30.3762L194.358 29.7138L184.513 57.7638L186.4 58.4262ZM196.254 30.3482C196.441 29.763 196.795 29.2795 197.36 28.8842L196.213 27.2458C195.311 27.8771 194.676 28.7137 194.349 29.7418L196.254 30.3482ZM197.36 28.8842C197.907 28.5009 198.564 28.295 199.371 28.295V26.295C198.199 26.295 197.132 26.6024 196.213 27.2458L197.36 28.8842ZM199.371 28.295L211.361 28.295V26.295L199.371 26.295V28.295ZM251.567 60.295H252.567V59.2443L251.518 59.2962L251.567 60.295ZM242.327 61.285L242.504 62.2693L242.511 62.2681L242.518 62.2667L242.327 61.285ZM236.442 63.045L235.995 62.1505L235.986 62.1552L236.442 63.045ZM233.362 65.575L232.525 65.0277L232.52 65.0359L233.362 65.575ZM234.297 73.275L233.693 74.0721L233.699 74.0764L233.705 74.0807L234.297 73.275ZM246.012 73.33L246.445 74.2316L246.452 74.2279L246.012 73.33ZM251.567 69.095L252.288 69.7881L252.567 69.4978V69.095H251.567ZM220.657 35.16L219.988 34.4171L219.396 34.9504L219.784 35.6465L220.657 35.16ZM231.712 28.45L232.054 29.3898L232.062 29.387L231.712 28.45ZM253.822 27.845L253.438 28.7681L253.442 28.7699L253.822 27.845ZM260.587 32.465L259.854 33.1444L259.86 33.1515L259.867 33.1584L260.587 32.465ZM266.362 84V85H267.362V84H266.362ZM256.132 83.395L255.65 84.2712L255.659 84.2761L255.668 84.2808L256.132 83.395ZM254.317 80.865L253.369 81.1812L253.374 81.1973L253.38 81.2132L254.317 80.865ZM253.107 77.235L254.056 76.9188L253.581 75.495L252.45 76.4812L253.107 77.235ZM248.927 80.535L248.352 79.7167L248.342 79.7243L248.927 80.535ZM244.802 82.955L245.202 83.8717L245.212 83.8674L245.221 83.863L244.802 82.955ZM240.182 84.385L239.986 83.4044L239.982 83.4053L240.182 84.385ZM227.917 83.89L227.611 84.842L227.917 83.89ZM222.582 80.975L221.913 81.7183L221.923 81.7271L221.933 81.7356L222.582 80.975ZM219.557 63.1L218.666 62.6465L219.557 63.1ZM225.002 57.435L225.552 58.2707L225.554 58.2689L225.002 57.435ZM235.342 53.2L235.591 54.1687L235.596 54.1672L235.342 53.2ZM251.567 51.275L251.59 52.2747L252.567 52.2527V51.275H251.567ZM249.312 40.55L248.566 41.2154L248.573 41.2235L249.312 40.55ZM237.597 38.79L237.921 39.7362L237.932 39.7324L237.943 39.7283L237.597 38.79ZM233.912 40.385L234.385 41.2665L234.395 41.2606L233.912 40.385ZM230.997 41.98L231.459 42.8672L231.472 42.8601L231.486 42.8525L230.997 41.98ZM225.112 41.925L224.493 42.7099L224.515 42.7277L224.539 42.7442L225.112 41.925ZM223.352 40L222.479 40.4865L222.495 40.5163L222.514 40.545L223.352 40ZM251.518 59.2962C247.787 59.4809 244.656 59.8144 242.137 60.3033L242.518 62.2667C244.912 61.8022 247.941 61.4758 251.617 61.2938L251.518 59.2962ZM242.151 60.3007C239.644 60.7497 237.58 61.3584 235.995 62.1506L236.89 63.9394C238.238 63.265 240.097 62.7003 242.504 62.2693L242.151 60.3007ZM235.986 62.1552C234.462 62.9369 233.275 63.8815 232.525 65.0277L234.199 66.1222C234.697 65.3618 235.563 64.6197 236.899 63.9348L235.986 62.1552ZM232.52 65.0359C231.829 66.1154 231.482 67.3111 231.482 68.6H233.482C233.482 67.6889 233.722 66.868 234.205 66.1141L232.52 65.0359ZM231.482 68.6C231.482 70.9655 232.136 72.8922 233.693 74.0721L234.901 72.4779C234.039 71.8244 233.482 70.6345 233.482 68.6H231.482ZM233.705 74.0807C235.182 75.1669 237.141 75.65 239.467 75.65V73.65C237.393 73.65 235.906 73.2165 234.89 72.4693L233.705 74.0807ZM239.467 75.65C242.111 75.65 244.448 75.1902 246.445 74.2315L245.58 72.4285C243.91 73.2298 241.883 73.65 239.467 73.65V75.65ZM246.452 74.2279C248.451 73.2481 250.395 71.7572 252.288 69.7881L250.847 68.4019C249.073 70.2461 247.313 71.5785 245.572 72.4321L246.452 74.2279ZM252.567 69.095L252.567 60.295H250.567L250.567 69.095H252.567ZM221.327 35.9029C224.572 32.9782 228.147 30.8105 232.054 29.3898L231.371 27.5102C227.211 29.0229 223.416 31.3284 219.988 34.4171L221.327 35.9029ZM232.062 29.387C235.974 27.9289 240.217 27.195 244.802 27.195V25.195C240.001 25.195 235.518 25.9644 231.363 27.513L232.062 29.387ZM244.802 27.195C248.067 27.195 250.939 27.7271 253.438 28.7681L254.207 26.9219C251.425 25.7629 248.284 25.195 244.802 25.195V27.195ZM253.442 28.7699C255.994 29.8188 258.126 31.2785 259.854 33.1444L261.321 31.7856C259.382 29.6915 257.004 28.0712 254.202 26.9201L253.442 28.7699ZM259.867 33.1584C261.633 34.9944 262.992 37.2008 263.938 39.7928L265.817 39.1072C264.782 36.2725 263.281 33.8223 261.308 31.7716L259.867 33.1584ZM263.938 39.7928C264.883 42.3842 265.362 45.2366 265.362 48.36H267.362C267.362 45.03 266.851 41.9425 265.817 39.1072L263.938 39.7928ZM265.362 48.36V84H267.362V48.36H265.362ZM266.362 83H259.432V85H266.362V83ZM259.432 83C258.072 83 257.159 82.804 256.596 82.5092L255.668 84.2808C256.645 84.7927 257.933 85 259.432 85V83ZM256.614 82.5188C256.189 82.285 255.697 81.7087 255.255 80.5168L253.38 81.2132C253.891 82.588 254.609 83.6983 255.65 84.2712L256.614 82.5188ZM255.266 80.5488L254.056 76.9188L252.159 77.5512L253.369 81.1812L255.266 80.5488ZM252.45 76.4812C251.043 77.7082 249.677 78.7861 248.352 79.7168L249.502 81.3532C250.891 80.3772 252.312 79.2551 253.764 77.9888L252.45 76.4812ZM248.342 79.7243C247.072 80.6412 245.753 81.4149 244.383 82.047L245.221 83.863C246.712 83.1751 248.142 82.3354 249.513 81.3457L248.342 79.7243ZM244.403 82.0383C243.043 82.631 241.572 83.0873 239.986 83.4044L240.378 85.3656C242.093 85.0227 243.702 84.5257 245.202 83.8717L244.403 82.0383ZM239.982 83.4053C238.447 83.7192 236.701 83.88 234.737 83.88V85.88C236.807 85.88 238.691 85.7108 240.383 85.3647L239.982 83.4053ZM234.737 83.88C232.332 83.88 230.164 83.5617 228.223 82.938L227.611 84.842C229.778 85.5383 232.156 85.88 234.737 85.88V83.88ZM228.223 82.938C226.284 82.3147 224.625 81.4043 223.232 80.2144L221.933 81.7356C223.546 83.1123 225.444 84.1453 227.611 84.842L228.223 82.938ZM223.251 80.2317C221.902 79.0178 220.849 77.5118 220.096 75.6966L218.249 76.4634C219.109 78.5348 220.329 80.2922 221.913 81.7183L223.251 80.2317ZM220.096 75.6966C219.349 73.8968 218.962 71.7945 218.962 69.37H216.962C216.962 72.0055 217.383 74.3766 218.249 76.4634L220.096 75.6966ZM218.962 69.37C218.962 67.456 219.448 65.5203 220.449 63.5535L218.666 62.6465C217.54 64.8597 216.962 67.104 216.962 69.37H218.962ZM220.449 63.5535C221.412 61.6592 223.086 59.8906 225.552 58.2707L224.453 56.5993C221.785 58.3527 219.829 60.3608 218.666 62.6465L220.449 63.5535ZM225.554 58.2689C228.035 56.6269 231.367 55.2516 235.591 54.1687L235.094 52.2313C230.737 53.3484 227.177 54.7964 224.45 56.6012L225.554 58.2689ZM235.596 54.1672C239.822 53.0571 245.146 52.4204 251.59 52.2747L251.545 50.2753C245.008 50.423 239.516 51.0696 235.088 52.2328L235.596 54.1672ZM252.567 51.275V48.36H250.567V51.275H252.567ZM252.567 48.36C252.567 44.6948 251.798 41.7933 250.052 39.8765L248.573 41.2235C249.833 42.6067 250.567 44.9119 250.567 48.36H252.567ZM250.059 39.8846C248.32 37.9339 245.854 37.02 242.822 37.02V39.02C245.437 39.02 247.298 39.7928 248.566 41.2154L250.059 39.8846ZM242.822 37.02C240.659 37.02 238.791 37.2846 237.252 37.8517L237.943 39.7283C239.191 39.2687 240.806 39.02 242.822 39.02V37.02ZM237.274 37.8438C235.836 38.3355 234.553 38.8895 233.429 39.5094L234.395 41.2606C235.398 40.7072 236.572 40.1978 237.921 39.7362L237.274 37.8438ZM233.44 39.5035C232.409 40.0561 231.431 40.5908 230.509 41.1075L231.486 42.8525C232.397 42.3425 233.363 41.8139 234.385 41.2665L233.44 39.5035ZM230.536 41.0928C229.784 41.4836 228.884 41.695 227.807 41.695V43.695C229.15 43.695 230.377 43.4297 231.459 42.8672L230.536 41.0928ZM227.807 41.695C226.91 41.695 226.221 41.4807 225.686 41.1058L224.539 42.7442C225.47 43.396 226.578 43.695 227.807 43.695V41.695ZM225.732 41.1401C225.12 40.6566 224.607 40.0956 224.191 39.455L222.514 40.545C223.051 41.371 223.712 42.0934 224.493 42.7099L225.732 41.1401ZM224.226 39.5135L221.531 34.6735L219.784 35.6465L222.479 40.4865L224.226 39.5135ZM297.791 33.895L296.818 34.1248L297.222 35.8372L298.487 34.6136L297.791 33.895ZM301.311 30.87L300.719 30.0643L300.713 30.0686L300.708 30.0729L301.311 30.87ZM305.216 28.505L304.788 27.6012L304.779 27.6058L305.216 28.505ZM309.671 26.965L309.45 25.9899L309.445 25.991L309.671 26.965ZM323.091 28.01L322.684 28.9232L323.091 28.01ZM329.086 32.465L328.323 33.111L328.33 33.1194L329.086 32.465ZM332.771 39.285L331.815 39.5772L331.819 39.5893L332.771 39.285ZM334.036 84V85H335.036V84H334.036ZM318.911 84H317.911V85H318.911V84ZM316.711 40.66L315.943 41.3002L315.95 41.3081L316.711 40.66ZM304.226 39.395L303.786 38.4971L304.226 39.395ZM298.891 43.245L298.192 42.5302L297.891 42.8243V43.245H298.891ZM298.891 84V85H299.891V84H298.891ZM283.711 84H282.711V85H283.711V84ZM283.711 27.295V26.295H282.711V27.295H283.711ZM296.856 29.935L297.83 29.7052L297.817 29.6523L297.799 29.6012L296.856 29.935ZM298.487 34.6136C299.596 33.5404 300.739 32.5585 301.915 31.6671L300.708 30.0729C299.464 31.0149 298.26 32.0496 297.096 33.1764L298.487 34.6136ZM301.904 31.6756C303.103 30.7939 304.353 30.0371 305.654 29.4042L304.779 27.6058C303.367 28.2929 302.013 29.1128 300.719 30.0643L301.904 31.6756ZM305.645 29.4087C306.97 28.7808 308.387 28.2903 309.898 27.939L309.445 25.991C307.802 26.373 306.249 26.9092 304.788 27.6013L305.645 29.4087ZM309.893 27.9401C311.425 27.592 313.091 27.415 314.896 27.415V25.415C312.961 25.415 311.145 25.6047 309.45 25.9899L309.893 27.9401ZM314.896 27.415C317.861 27.415 320.45 27.9265 322.684 28.9232L323.499 27.0968C320.966 25.9669 318.092 25.415 314.896 25.415V27.415ZM322.684 28.9232C324.936 29.9282 326.811 31.3242 328.323 33.1109L329.85 31.8191C328.135 29.7925 326.013 28.2185 323.499 27.0968L322.684 28.9232ZM328.33 33.1194C329.881 34.911 331.045 37.0578 331.815 39.5772L333.728 38.9928C332.884 36.2322 331.592 33.8324 329.843 31.8106L328.33 33.1194ZM331.819 39.5893C332.627 42.1184 333.036 44.9109 333.036 47.975H335.036C335.036 44.7324 334.603 41.7316 333.724 38.9807L331.819 39.5893ZM333.036 47.975V84H335.036V47.975H333.036ZM334.036 83H318.911V85H334.036V83ZM319.911 84V47.975H317.911V84H319.911ZM319.911 47.975C319.911 44.677 319.145 41.976 317.473 40.0119L315.95 41.3081C317.212 42.7906 317.911 44.9663 317.911 47.975H319.911ZM317.48 40.0198C315.777 37.9766 313.298 37.02 310.221 37.02V39.02C312.865 39.02 314.713 39.8234 315.943 41.3002L317.48 40.0198ZM310.221 37.02C307.945 37.02 305.796 37.5118 303.786 38.4971L304.667 40.2929C306.397 39.4449 308.244 39.02 310.221 39.02V37.02ZM303.786 38.4971C301.809 39.4664 299.945 40.8155 298.192 42.5302L299.591 43.9598C301.211 42.3745 302.904 41.157 304.667 40.2929L303.786 38.4971ZM297.891 43.245V84H299.891V43.245H297.891ZM298.891 83H283.711V85H298.891V83ZM284.711 84V27.295H282.711V84H284.711ZM283.711 28.295L293.061 28.295V26.295L283.711 26.295V28.295ZM293.061 28.295C293.859 28.295 294.44 28.4776 294.869 28.7759C295.296 29.073 295.657 29.5435 295.914 30.2688L297.799 29.6012C297.433 28.5665 296.849 27.717 296.011 27.1341C295.175 26.5524 294.17 26.295 293.061 26.295V28.295ZM295.883 30.1648L296.818 34.1248L298.765 33.6652L297.83 29.7052L295.883 30.1648ZM363.632 83.78L363.269 84.712L363.277 84.7149L363.284 84.7178L363.632 83.78ZM358.627 80.535L359.343 79.8374L358.627 80.535ZM355.547 75.475L356.49 75.1431L355.547 75.475ZM354.502 38.185H355.502V37.185H354.502V38.185ZM347.077 37.415L346.394 38.1461L346.406 38.157L346.418 38.1676L347.077 37.415ZM346.252 29.165L346.073 28.1811L345.252 28.3304V29.165H346.252ZM355.327 27.515L355.505 28.4989L356.167 28.3785L356.305 27.7203L355.327 27.515ZM358.407 12.83L357.435 12.5925L357.431 12.6086L357.428 12.6247L358.407 12.83ZM369.682 10.355H370.682V9.355H369.682V10.355ZM369.682 27.625H368.682V28.625H369.682V27.625ZM384.312 27.625H385.312V26.625H384.312V27.625ZM384.312 38.185V39.185H385.312V38.185H384.312ZM369.682 38.185V37.185H368.682V38.185H369.682ZM370.782 71.515L370.001 72.1397L370.008 72.149L370.016 72.1582L370.782 71.515ZM375.897 72.67L376.171 73.6315L376.202 73.6226L376.233 73.6117L375.897 72.67ZM377.217 72.12L377.664 73.0144L377.698 72.9973L377.731 72.9775L377.217 72.12ZM378.207 71.57L378.654 72.4644L378.673 72.4547L378.692 72.4442L378.207 71.57ZM380.297 71.625L379.697 72.425L379.731 72.4505L379.767 72.473L380.297 71.625ZM381.177 72.615L380.325 73.1391L380.33 73.1473L381.177 72.615ZM385.742 79.875L386.361 80.6599L387.066 80.1032L386.588 79.3427L385.742 79.875ZM378.647 83.615L378.342 82.6624L378.647 83.615ZM370.452 83.88C367.979 83.88 365.827 83.5266 363.979 82.8423L363.284 84.7178C365.396 85.5001 367.791 85.88 370.452 85.88V83.88ZM363.994 82.848C362.135 82.125 360.591 81.119 359.343 79.8374L357.91 81.2326C359.376 82.7377 361.168 83.895 363.269 84.712L363.994 82.848ZM359.343 79.8374C358.095 78.5561 357.142 76.9972 356.49 75.1431L354.603 75.8069C355.344 77.9128 356.444 79.7272 357.91 81.2326L359.343 79.8374ZM356.49 75.1431C355.837 73.2876 355.502 71.166 355.502 68.765H353.502C353.502 71.3507 353.863 73.7024 354.603 75.8069L356.49 75.1431ZM355.502 68.765V38.185H353.502V68.765H355.502ZM354.502 37.185H349.167V39.185H354.502V37.185ZM349.167 37.185C348.593 37.185 348.133 37.0103 347.735 36.6624L346.418 38.1676C347.194 38.8464 348.127 39.185 349.167 39.185V37.185ZM347.759 36.6839C347.477 36.4209 347.252 35.9592 347.252 35.105H345.252C345.252 36.3042 345.576 37.3824 346.394 38.1461L347.759 36.6839ZM347.252 35.105V29.165H345.252V35.105H347.252ZM346.43 30.1489L355.505 28.4989L355.148 26.5311L346.073 28.1811L346.43 30.1489ZM356.305 27.7203L359.385 13.0353L357.428 12.6247L354.348 27.3097L356.305 27.7203ZM359.378 13.0675C359.537 12.4175 359.81 12.023 360.141 11.7785C360.481 11.5279 360.991 11.355 361.762 11.355V9.355C360.699 9.355 359.733 9.59459 358.954 10.169C358.167 10.7495 357.68 11.5925 357.435 12.5925L359.378 13.0675ZM361.762 11.355H369.682V9.355H361.762V11.355ZM368.682 10.355V27.625H370.682V10.355H368.682ZM369.682 28.625L384.312 28.625V26.625L369.682 26.625V28.625ZM383.312 27.625V38.185H385.312V27.625H383.312ZM384.312 37.185L369.682 37.185V39.185H384.312V37.185ZM368.682 38.185V67.775H370.682V38.185H368.682ZM368.682 67.775C368.682 69.501 369.084 70.9933 370.001 72.1397L371.562 70.8903C371.013 70.2034 370.682 69.2024 370.682 67.775H368.682ZM370.016 72.1582C371.008 73.3393 372.392 73.89 374.027 73.89V71.89C372.875 71.89 372.095 71.5241 371.547 70.8718L370.016 72.1582ZM374.027 73.89C374.821 73.89 375.542 73.8112 376.171 73.6315L375.622 71.7085C375.224 71.8221 374.699 71.89 374.027 71.89V73.89ZM376.233 73.6117C376.773 73.419 377.252 73.2205 377.664 73.0144L376.769 71.2256C376.448 71.3862 376.047 71.5543 375.56 71.7283L376.233 73.6117ZM377.731 72.9775C378.082 72.767 378.389 72.5968 378.654 72.4644L377.759 70.6756C377.437 70.8365 377.085 71.033 376.702 71.2625L377.731 72.9775ZM378.692 72.4442C378.895 72.3313 379.06 72.295 379.197 72.295V70.295C378.673 70.295 378.178 70.442 377.721 70.6958L378.692 72.4442ZM379.197 72.295C379.465 72.295 379.609 72.3592 379.697 72.425L380.897 70.825C380.398 70.4508 379.808 70.295 379.197 70.295V72.295ZM379.767 72.473C379.873 72.5392 380.068 72.7217 380.325 73.1391L382.028 72.0909C381.698 71.555 381.307 71.0774 380.827 70.777L379.767 72.473ZM380.33 73.1473L384.895 80.4073L386.588 79.3427L382.023 72.0827L380.33 73.1473ZM385.122 79.0901C383.13 80.6627 380.873 81.8541 378.342 82.6624L378.951 84.5676C381.7 83.6892 384.173 82.3873 386.361 80.6599L385.122 79.0901ZM378.342 82.6624C375.802 83.4737 373.174 83.88 370.452 83.88V85.88C373.376 85.88 376.211 85.4429 378.951 84.5676L378.342 82.6624ZM427.589 60.295H428.589V59.2443L427.539 59.2962L427.589 60.295ZM418.349 61.285L418.525 62.2693L418.532 62.2681L418.539 62.2667L418.349 61.285ZM412.464 63.045L412.017 62.1505L412.008 62.1552L412.464 63.045ZM409.384 65.575L408.547 65.0277L408.542 65.0359L409.384 65.575ZM410.319 73.275L409.715 74.0721L409.721 74.0764L409.726 74.0807L410.319 73.275ZM422.034 73.33L422.467 74.2316L422.474 74.2279L422.034 73.33ZM427.589 69.095L428.31 69.7881L428.589 69.4978V69.095H427.589ZM396.679 35.16L396.009 34.4171L395.418 34.9504L395.805 35.6465L396.679 35.16ZM407.734 28.45L408.076 29.3898L408.083 29.387L407.734 28.45ZM429.844 27.845L429.459 28.7681L429.464 28.7699L429.844 27.845ZM436.609 32.465L435.875 33.1444L435.882 33.1515L435.888 33.1584L436.609 32.465ZM442.384 84V85H443.384V84H442.384ZM432.154 83.395L431.672 84.2712L431.681 84.2761L431.69 84.2808L432.154 83.395ZM430.339 80.865L429.39 81.1812L429.396 81.1973L429.401 81.2132L430.339 80.865ZM429.129 77.235L430.078 76.9188L429.603 75.495L428.472 76.4812L429.129 77.235ZM424.949 80.535L424.374 79.7167L424.363 79.7243L424.949 80.535ZM420.824 82.955L421.223 83.8717L421.233 83.8674L421.243 83.863L420.824 82.955ZM416.204 84.385L416.008 83.4044L416.003 83.4053L416.204 84.385ZM403.939 83.89L403.633 84.842L403.939 83.89ZM398.604 80.975L397.935 81.7183L397.945 81.7271L397.955 81.7356L398.604 80.975ZM395.579 63.1L394.688 62.6465L395.579 63.1ZM401.024 57.435L401.573 58.2707L401.576 58.2689L401.024 57.435ZM411.364 53.2L411.612 54.1687L411.618 54.1672L411.364 53.2ZM427.589 51.275L427.611 52.2747L428.589 52.2527V51.275H427.589ZM425.334 40.55L424.587 41.2154L424.595 41.2235L425.334 40.55ZM413.619 38.79L413.943 39.7362L413.954 39.7324L413.965 39.7283L413.619 38.79ZM409.934 40.385L410.406 41.2665L410.417 41.2606L409.934 40.385ZM407.019 41.98L407.48 42.8672L407.494 42.8601L407.507 42.8525L407.019 41.98ZM401.134 41.925L400.514 42.7099L400.537 42.7277L400.56 42.7442L401.134 41.925ZM399.374 40L398.5 40.4865L398.517 40.5163L398.535 40.545L399.374 40ZM427.539 59.2962C423.809 59.4809 420.678 59.8144 418.158 60.3033L418.539 62.2667C420.933 61.8022 423.962 61.4758 427.638 61.2938L427.539 59.2962ZM418.173 60.3007C415.665 60.7497 413.601 61.3584 412.017 62.1506L412.911 63.9394C414.26 63.265 416.119 62.7003 418.525 62.2693L418.173 60.3007ZM412.008 62.1552C410.483 62.9369 409.296 63.8815 408.547 65.0277L410.221 66.1222C410.718 65.3618 411.585 64.6197 412.92 63.9348L412.008 62.1552ZM408.542 65.0359C407.851 66.1154 407.504 67.3111 407.504 68.6H409.504C409.504 67.6889 409.744 66.868 410.226 66.1141L408.542 65.0359ZM407.504 68.6C407.504 70.9655 408.158 72.8922 409.715 74.0721L410.923 72.4779C410.06 71.8244 409.504 70.6345 409.504 68.6H407.504ZM409.726 74.0807C411.204 75.1669 413.163 75.65 415.489 75.65V73.65C413.415 73.65 411.927 73.2165 410.911 72.4693L409.726 74.0807ZM415.489 75.65C418.133 75.65 420.469 75.1902 422.467 74.2315L421.601 72.4285C419.932 73.2298 417.905 73.65 415.489 73.65V75.65ZM422.474 74.2279C424.473 73.2481 426.416 71.7572 428.31 69.7881L426.868 68.4019C425.095 70.2461 423.335 71.5785 421.594 72.4321L422.474 74.2279ZM428.589 69.095V60.295H426.589V69.095H428.589ZM397.348 35.9029C400.594 32.9782 404.169 30.8105 408.076 29.3898L407.392 27.5102C403.232 29.0229 399.437 31.3284 396.009 34.4171L397.348 35.9029ZM408.083 29.387C411.995 27.9289 416.239 27.195 420.824 27.195V25.195C416.022 25.195 411.539 25.9644 407.385 27.513L408.083 29.387ZM420.824 27.195C424.088 27.195 426.961 27.7271 429.459 28.7681L430.228 26.9219C427.447 25.7629 424.306 25.195 420.824 25.195V27.195ZM429.464 28.7699C432.016 29.8188 434.147 31.2785 435.875 33.1444L437.343 31.7856C435.404 29.6915 433.025 28.0712 430.224 26.9201L429.464 28.7699ZM435.888 33.1584C437.655 34.9944 439.014 37.2008 439.959 39.7928L441.838 39.1072C440.804 36.2725 439.303 33.8223 437.329 31.7716L435.888 33.1584ZM439.959 39.7928C440.905 42.3842 441.384 45.2366 441.384 48.36H443.384C443.384 45.03 442.873 41.9425 441.838 39.1072L439.959 39.7928ZM441.384 48.36V84H443.384V48.36H441.384ZM442.384 83H435.454V85H442.384V83ZM435.454 83C434.093 83 433.181 82.804 432.618 82.5092L431.69 84.2808C432.667 84.7927 433.954 85 435.454 85V83ZM432.636 82.5188C432.211 82.285 431.719 81.7087 431.276 80.5168L429.401 81.2132C429.912 82.588 430.63 83.6983 431.672 84.2712L432.636 82.5188ZM431.288 80.5488L430.078 76.9188L428.18 77.5512L429.39 81.1812L431.288 80.5488ZM428.472 76.4812C427.064 77.7082 425.698 78.7861 424.374 79.7168L425.524 81.3532C426.913 80.3772 428.333 79.2551 429.786 77.9888L428.472 76.4812ZM424.363 79.7243C423.094 80.6412 421.774 81.4149 420.405 82.047L421.243 83.863C422.733 83.1751 424.164 82.3354 425.534 81.3457L424.363 79.7243ZM420.424 82.0383C419.064 82.631 417.593 83.0873 416.008 83.4044L416.4 85.3656C418.114 85.0227 419.723 84.5257 421.223 83.8717L420.424 82.0383ZM416.003 83.4053C414.469 83.7192 412.723 83.88 410.759 83.88V85.88C412.828 85.88 414.712 85.7108 416.404 85.3647L416.003 83.4053ZM410.759 83.88C408.354 83.88 406.185 83.5617 404.245 82.938L403.633 84.842C405.799 85.5383 408.177 85.88 410.759 85.88V83.88ZM404.245 82.938C402.306 82.3147 400.647 81.4043 399.253 80.2144L397.955 81.7356C399.567 83.1123 401.465 84.1453 403.633 84.842L404.245 82.938ZM399.273 80.2317C397.924 79.0178 396.871 77.5118 396.117 75.6966L394.27 76.4634C395.13 78.5348 396.35 80.2922 397.935 81.7183L399.273 80.2317ZM396.117 75.6966C395.37 73.8968 394.984 71.7945 394.984 69.37H392.984C392.984 72.0055 393.404 74.3766 394.27 76.4634L396.117 75.6966ZM394.984 69.37C394.984 67.456 395.469 65.5203 396.47 63.5535L394.688 62.6465C393.562 64.8597 392.984 67.104 392.984 69.37H394.984ZM396.47 63.5535C397.434 61.6592 399.108 59.8906 401.573 58.2707L400.475 56.5993C397.806 58.3527 395.85 60.3608 394.688 62.6465L396.47 63.5535ZM401.576 58.2689C404.056 56.6269 407.389 55.2516 411.612 54.1687L411.115 52.2313C406.759 53.3484 403.198 54.7964 400.472 56.6012L401.576 58.2689ZM411.618 54.1672C415.843 53.0571 421.168 52.4204 427.611 52.2747L427.566 50.2753C421.03 50.423 415.538 51.0696 411.11 52.2328L411.618 54.1672ZM428.589 51.275V48.36H426.589V51.275H428.589ZM428.589 48.36C428.589 44.6948 427.819 41.7933 426.073 39.8765L424.595 41.2235C425.855 42.6067 426.589 44.9119 426.589 48.36H428.589ZM426.08 39.8846C424.342 37.9339 421.876 37.02 418.844 37.02V39.02C421.459 39.02 423.319 39.7928 424.587 41.2154L426.08 39.8846ZM418.844 37.02C416.68 37.02 414.812 37.2846 413.273 37.8517L413.965 39.7283C415.212 39.2687 416.827 39.02 418.844 39.02V37.02ZM413.295 37.8438C411.858 38.3355 410.574 38.8895 409.451 39.5094L410.417 41.2606C411.42 40.7072 412.593 40.1978 413.943 39.7362L413.295 37.8438ZM409.462 39.5035C408.43 40.0561 407.453 40.5908 406.53 41.1075L407.507 42.8525C408.418 42.3425 409.384 41.8139 410.406 41.2665L409.462 39.5035ZM406.557 41.0928C405.806 41.4836 404.906 41.695 403.829 41.695V43.695C405.172 43.695 406.398 43.4297 407.48 42.8672L406.557 41.0928ZM403.829 41.695C402.931 41.695 402.243 41.4807 401.707 41.1058L400.56 42.7442C401.491 43.396 402.6 43.695 403.829 43.695V41.695ZM401.753 41.1401C401.141 40.6566 400.629 40.0956 400.212 39.455L398.535 40.545C399.072 41.371 399.733 42.0934 400.514 42.7099L401.753 41.1401ZM400.248 39.5135L397.553 34.6735L395.805 35.6465L398.5 40.4865L400.248 39.5135ZM487.728 51.165L487.004 50.4749L486.996 50.4839L487.728 51.165ZM487.728 38.955L487.012 39.6533L487.021 39.6622L487.03 39.6708L487.728 38.955ZM473.978 38.955L474.685 39.6622L474.694 39.6533L473.978 38.955ZM473.978 51.165L473.238 51.8377L473.246 51.8465L473.254 51.8551L473.978 51.165ZM494.273 83.89L493.566 84.5971L494.273 83.89ZM491.743 82.405L491.407 83.3468L491.417 83.3504L491.743 82.405ZM488.058 81.635L487.931 82.6269L487.943 82.6285L487.956 82.6298L488.058 81.635ZM483.493 81.25L483.425 82.2477L483.436 82.2485L483.447 82.249L483.493 81.25ZM478.488 80.975L478.445 81.9741L478.488 80.975ZM473.428 80.59L473.538 79.5961L473.203 79.5588L472.913 79.7325L473.428 80.59ZM470.238 83.34L469.454 82.7186L469.452 82.7222L470.238 83.34ZM469.633 89.39L468.747 89.854L468.756 89.8702L468.765 89.8861L469.633 89.39ZM471.778 91.37L471.292 92.2442L471.778 91.37ZM475.683 92.635L475.883 91.6553L475.873 91.6531L475.862 91.6511L475.683 92.635ZM488.058 92.635L487.87 91.6528L488.058 92.635ZM492.238 91.205L491.755 90.3294L491.743 90.3357L491.732 90.3423L492.238 91.205ZM494.493 89.06L493.622 88.5679L493.614 88.5826L493.606 88.5974L494.493 89.06ZM510.278 29.165L511.278 29.165V28.165L510.278 28.165V29.165ZM509.508 36.81L508.801 36.1029L508.788 36.116L508.775 36.1295L509.508 36.81ZM507.088 37.965L507.286 38.9451L507.297 38.9429L507.308 38.9404L507.088 37.965ZM502.468 38.9L502.27 37.9199L501.148 38.1468L501.523 39.2278L502.468 38.9ZM501.643 52.32L500.754 51.8613L500.751 51.867L501.643 52.32ZM496.913 58.095L497.529 58.8829L497.538 58.8759L496.913 58.095ZM489.763 61.78L490.056 62.7361L490.068 62.7324L489.763 61.78ZM475.188 62.55L475.372 61.5671L474.991 61.4957L474.662 61.6997L475.188 62.55ZM474.418 67.995L473.997 68.9021L474.009 68.9075L474.418 67.995ZM478.543 69.04L478.414 70.0316L478.425 70.0331L478.437 70.0344L478.543 69.04ZM484.373 69.425L484.339 70.4244L484.348 70.4247L484.356 70.4249L484.373 69.425ZM491.028 69.755L490.946 70.7517L490.948 70.7518L491.028 69.755ZM497.683 70.745L497.468 71.7216L497.477 71.7237L497.487 71.7256L497.683 70.745ZM503.513 73L502.98 73.8459L502.99 73.8526L503.001 73.8591L503.513 73ZM507.638 77.125L506.779 77.6368L506.783 77.6435L506.787 77.6501L507.638 77.125ZM507.363 91.15L506.477 90.6865L507.363 91.15ZM501.918 97.53L501.301 96.7432L501.295 96.7479L501.918 97.53ZM493.228 102.04L492.915 101.09L493.228 102.04ZM470.073 102.48L470.326 101.512L470.318 101.511L470.073 102.48ZM462.098 99.18L462.646 98.3435L462.642 98.3412L462.098 99.18ZM457.423 94.45L456.555 94.9461L457.423 94.45ZM458.193 82.405L457.44 81.7465L458.193 82.405ZM464.573 78.17L464.938 79.1011L466.897 78.3331L465.064 77.299L464.573 78.17ZM461.108 75.035L460.265 75.5734L460.274 75.5871L460.283 75.6005L461.108 75.035ZM461.658 64.585L460.826 64.0303L460.818 64.0417L461.658 64.585ZM467.378 59.91L467.815 60.8095L469.584 59.9502L467.847 59.027L467.378 59.91ZM460.503 53.75L459.664 54.2938L459.667 54.2992L460.503 53.75ZM459.678 37.03L458.789 36.5713L458.783 36.5828L459.678 37.03ZM464.518 31.255L465.127 32.0482L465.136 32.0413L464.518 31.255ZM493.668 29.165L493.21 30.0541L493.426 30.165H493.668V29.165ZM480.853 54.53C484.121 54.53 486.733 53.7029 488.46 51.8461L486.996 50.4839C485.79 51.7804 483.818 52.53 480.853 52.53V54.53ZM488.452 51.8551C490.158 50.0653 490.983 47.7703 490.983 45.06L488.983 45.06C488.983 47.3364 488.304 49.1113 487.004 50.4749L488.452 51.8551ZM490.983 45.06C490.983 42.2558 490.167 39.9371 488.426 38.2392L487.03 39.6708C488.296 40.9062 488.983 42.6575 488.983 45.06L490.983 45.06ZM488.444 38.2567C486.714 36.4839 484.109 35.7 480.853 35.7V37.7C483.83 37.7 485.808 38.4194 487.012 39.6533L488.444 38.2567ZM480.853 35.7C477.597 35.7 474.992 36.4839 473.262 38.2567L474.694 39.6533C475.897 38.4194 477.876 37.7 480.853 37.7V35.7ZM473.271 38.2479C471.572 39.9472 470.778 42.2628 470.778 45.06H472.778C472.778 42.6505 473.451 40.8962 474.685 39.6621L473.271 38.2479ZM470.778 45.06C470.778 47.7315 471.582 50.0166 473.238 51.8377L474.718 50.4923C473.44 49.0867 472.778 47.3018 472.778 45.06H470.778ZM473.254 51.8551C475.013 53.6999 477.615 54.53 480.853 54.53V52.53C477.931 52.53 475.949 51.7834 474.702 50.4749L473.254 51.8551ZM496.208 86.31C496.208 85.0904 495.815 84.0175 494.98 83.1829L493.566 84.5971C493.978 85.0091 494.208 85.5496 494.208 86.31H496.208ZM494.98 83.1829C494.224 82.4268 493.237 81.8625 492.069 81.4596L491.417 83.3504C492.375 83.6808 493.075 84.1065 493.566 84.5971L494.98 83.1829ZM492.079 81.4633C490.957 81.0626 489.646 80.7926 488.16 80.6402L487.956 82.6298C489.33 82.7707 490.475 83.0141 491.407 83.3467L492.079 81.4633ZM488.185 80.6431C486.725 80.4559 485.176 80.3255 483.538 80.251L483.447 82.249C485.037 82.3212 486.531 82.4474 487.931 82.6269L488.185 80.6431ZM483.561 80.2523C481.939 80.1417 480.262 80.0496 478.53 79.9759L478.445 81.9741C480.161 82.0471 481.821 82.1383 483.425 82.2477L483.561 80.2523ZM478.53 79.9759C476.829 79.9035 475.165 79.7768 473.538 79.5961L473.317 81.5839C474.991 81.7698 476.7 81.8998 478.445 81.9741L478.53 79.9759ZM472.913 79.7325C471.538 80.558 470.38 81.5518 469.454 82.7186L471.021 83.9614C471.783 83.0015 472.752 82.162 473.942 81.4475L472.913 79.7325ZM469.452 82.7222C468.505 83.9271 468.028 85.3186 468.028 86.86H470.028C470.028 85.7614 470.358 84.8062 471.024 83.9578L469.452 82.7222ZM468.028 86.86C468.028 87.9292 468.265 88.933 468.747 89.854L470.519 88.926C470.194 88.307 470.028 87.6241 470.028 86.86H468.028ZM468.765 89.8861C469.317 90.853 470.186 91.6297 471.292 92.2442L472.264 90.4958C471.39 90.0103 470.829 89.467 470.501 88.8939L468.765 89.8861ZM471.292 92.2442C472.41 92.8653 473.827 93.3139 475.504 93.6189L475.862 91.6511C474.312 91.3694 473.126 90.9747 472.264 90.4958L471.292 92.2442ZM475.482 93.6147C477.185 93.9629 479.274 94.13 481.733 94.13V92.13C479.352 92.13 477.408 91.9671 475.883 91.6553L475.482 93.6147ZM481.733 94.13C484.265 94.13 486.441 93.9628 488.246 93.6172L487.87 91.6528C486.228 91.9672 484.187 92.13 481.733 92.13V94.13ZM488.246 93.6172C490.038 93.274 491.55 92.7674 492.744 92.0677L491.732 90.3423C490.799 90.8892 489.525 91.336 487.87 91.6528L488.246 93.6172ZM492.721 92.0806C493.909 91.425 494.826 90.5827 495.379 89.5226L493.606 88.5974C493.279 89.2239 492.693 89.8116 491.755 90.3294L492.721 92.0806ZM495.363 89.5521C495.927 88.5552 496.208 87.4685 496.208 86.31H494.208C494.208 87.1315 494.012 87.8781 493.622 88.5679L495.363 89.5521ZM509.278 29.165V34.72L511.278 34.72V29.165L509.278 29.165ZM509.278 34.72C509.278 35.3948 509.088 35.8157 508.801 36.1029L510.215 37.5171C510.954 36.7777 511.278 35.8052 511.278 34.72L509.278 34.72ZM508.775 36.1295C508.5 36.4263 507.925 36.7507 506.868 36.9896L507.308 38.9404C508.524 38.6659 509.563 38.2204 510.241 37.4904L508.775 36.1295ZM506.89 36.9849L502.27 37.9199L502.666 39.8801L507.286 38.9451L506.89 36.9849ZM501.523 39.2278C502.107 40.9109 502.403 42.7243 502.403 44.675H504.403C504.403 42.519 504.075 40.4824 503.413 38.5722L501.523 39.2278ZM502.403 44.675C502.403 47.3556 501.847 49.744 500.754 51.8614L502.532 52.7786C503.785 50.3493 504.403 47.6411 504.403 44.675H502.403ZM500.751 51.867C499.681 53.9728 498.197 55.7871 496.288 57.3141L497.538 58.8759C499.662 57.1762 501.331 55.1405 502.534 52.773L500.751 51.867ZM496.297 57.3072C494.385 58.8023 492.11 59.979 489.458 60.8276L490.068 62.7324C492.916 61.821 495.408 60.541 497.529 58.8828L496.297 57.3072ZM489.47 60.8239C486.824 61.6352 483.954 62.045 480.853 62.045V64.045C484.132 64.045 487.201 63.6115 490.056 62.7361L489.47 60.8239ZM480.853 62.045C478.89 62.045 477.064 61.8844 475.372 61.5671L475.004 63.5329C476.831 63.8756 478.782 64.045 480.853 64.045V62.045ZM474.662 61.6997C473.01 62.7222 471.878 64.031 471.878 65.685H473.878C473.878 65.0656 474.286 64.2845 475.714 63.4003L474.662 61.6997ZM471.878 65.685C471.878 66.3838 472.049 67.0419 472.431 67.6147C472.81 68.1836 473.354 68.6035 473.997 68.902L474.839 67.088C474.455 66.9098 474.229 66.7064 474.095 66.5053C473.963 66.3081 473.878 66.0495 473.878 65.685H471.878ZM474.009 68.9075C475.192 69.4377 476.67 69.8042 478.414 70.0316L478.672 68.0484C477.042 67.8358 475.771 67.5056 474.827 67.0825L474.009 68.9075ZM478.437 70.0344C480.189 70.2208 482.157 70.3505 484.339 70.4244L484.407 68.4256C482.262 68.3529 480.343 68.2259 478.649 68.0456L478.437 70.0344ZM484.356 70.4249C486.534 70.4612 488.731 70.5701 490.946 70.7517L491.11 68.7583C488.852 68.5733 486.612 68.4622 484.39 68.4251L484.356 70.4249ZM490.948 70.7518C493.177 70.9315 495.35 71.255 497.468 71.7216L497.898 69.7684C495.689 69.2817 493.426 68.9451 491.108 68.7582L490.948 70.7518ZM497.487 71.7256C499.582 72.1446 501.408 72.8553 502.98 73.8459L504.046 72.1541C502.244 71.018 500.184 70.2254 497.879 69.7644L497.487 71.7256ZM503.001 73.8591C504.582 74.8007 505.837 76.0563 506.779 77.6368L508.497 76.6132C507.385 74.747 505.891 73.2527 504.025 72.1409L503.001 73.8591ZM506.787 77.6501C507.725 79.1706 508.233 81.1909 508.233 83.78H510.233C510.233 80.9424 509.677 78.5261 508.489 76.5999L506.787 77.6501ZM508.233 83.78C508.233 86.1384 507.654 88.4369 506.477 90.6865L508.249 91.6135C509.566 89.0964 510.233 86.4816 510.233 83.78H508.233ZM506.477 90.6865C505.304 92.9293 503.587 94.9497 501.301 96.7433L502.535 98.3167C505.016 96.3703 506.929 94.1374 508.249 91.6135L506.477 90.6865ZM501.295 96.7479C499.058 98.5305 496.272 99.9832 492.915 101.09L493.541 102.99C497.077 101.823 500.085 100.269 502.541 98.3121L501.295 96.7479ZM492.915 101.09C489.588 102.187 485.773 102.745 481.458 102.745V104.745C485.942 104.745 489.975 104.166 493.541 102.99L492.915 101.09ZM481.458 102.745C477.155 102.745 473.449 102.329 470.326 101.513L469.82 103.447C473.15 104.318 477.034 104.745 481.458 104.745V102.745ZM470.318 101.511C467.206 100.723 464.657 99.6611 462.646 98.3435L461.55 100.016C463.792 101.486 466.56 102.623 469.828 103.449L470.318 101.511ZM462.642 98.3412C460.659 97.0538 459.224 95.5866 458.291 93.9539L456.555 94.9461C457.675 96.9067 459.357 98.5929 461.553 100.019L462.642 98.3412ZM458.291 93.9539C457.345 92.2981 456.883 90.598 456.883 88.84H454.883C454.883 90.9687 455.447 93.0085 456.555 94.9461L458.291 93.9539ZM456.883 88.84C456.883 86.5308 457.579 84.6257 458.945 83.0635L457.44 81.7465C455.727 83.7043 454.883 86.0892 454.883 88.84H456.883ZM458.945 83.0635C460.357 81.4502 462.338 80.12 464.938 79.1011L464.208 77.2389C461.382 78.3466 459.109 79.8398 457.44 81.7465L458.945 83.0635ZM465.064 77.299C463.76 76.5631 462.721 75.6199 461.933 74.4695L460.283 75.6005C461.254 77.0167 462.526 78.1635 464.082 79.041L465.064 77.299ZM461.951 74.4966C461.239 73.3828 460.843 71.8814 460.843 69.92H458.843C458.843 72.1386 459.29 74.0472 460.265 75.5734L461.951 74.4966ZM460.843 69.92C460.843 68.4789 461.359 66.8873 462.497 65.1283L460.818 64.0417C459.536 66.0227 458.843 67.9878 458.843 69.92H460.843ZM462.49 65.1397C463.615 63.4526 465.366 61.9991 467.815 60.8095L466.941 59.0105C464.257 60.3143 462.194 61.9774 460.826 64.0303L462.49 65.1397ZM467.847 59.027C465.088 57.5603 462.927 55.6177 461.339 53.2008L459.667 54.2992C461.452 57.0156 463.874 59.1797 466.908 60.793L467.847 59.027ZM461.342 53.2063C459.772 50.7825 458.973 47.9509 458.973 44.675H456.973C456.973 48.2924 457.861 51.5108 459.664 54.2937L461.342 53.2063ZM458.973 44.675C458.973 41.9895 459.512 39.5969 460.572 37.4772L458.783 36.5828C457.57 39.0098 456.973 41.7138 456.973 44.675H458.973ZM460.566 37.4886C461.672 35.3476 463.189 33.5363 465.127 32.0481L463.909 30.4618C461.74 32.127 460.031 34.1657 458.789 36.5714L460.566 37.4886ZM465.136 32.0413C467.081 30.5132 469.386 29.3386 472.068 28.5271L471.488 26.6129C468.596 27.4881 466.062 28.7702 463.9 30.4687L465.136 32.0413ZM472.068 28.5271C474.75 27.7154 477.676 27.305 480.853 27.305V25.305C477.503 25.305 474.379 25.7379 471.488 26.6129L472.068 28.5271ZM480.853 27.305C485.559 27.305 489.67 28.2313 493.21 30.0541L494.126 28.2759C490.259 26.2854 485.826 25.305 480.853 25.305V27.305ZM493.668 30.165H510.278V28.165H493.668V30.165ZM558.566 48.965V49.965H559.566V48.965H558.566ZM557.906 44.455L556.944 44.7265L556.947 44.7378L556.95 44.7491L557.906 44.455ZM555.926 40.66L555.158 41.3002L555.926 40.66ZM552.461 38.075L552.033 38.9787L552.043 38.9834L552.053 38.9878L552.461 38.075ZM534.916 48.965L533.929 48.8037L533.739 49.965H534.916V48.965ZM534.696 57.985V56.985H533.602L533.7 58.0743L534.696 57.985ZM539.206 69.645L538.51 70.3624L538.515 70.3674L539.206 69.645ZM554.606 72.615L554.908 73.5682L554.915 73.566L554.922 73.5637L554.606 72.615ZM558.621 70.965L559.08 71.8537L559.09 71.8481L558.621 70.965ZM561.756 69.315L562.218 70.2022L562.224 70.1989L562.23 70.1955L561.756 69.315ZM567.311 69.865L566.511 70.465L566.521 70.4775L566.53 70.4897L567.311 69.865ZM571.711 75.365L572.468 76.0182L573.011 75.3891L572.492 74.7403L571.711 75.365ZM566.376 80.04L566.905 80.889L566.916 80.8817L566.376 80.04ZM560.326 82.955L560.642 83.9037L560.65 83.9012L560.657 83.8986L560.326 82.955ZM554.001 84.385L553.881 83.3922L553.873 83.3932L553.865 83.3944L554.001 84.385ZM536.731 82.9L536.37 83.8326L536.382 83.8371L536.731 82.9ZM527.766 77.125L527.054 77.827L527.059 77.8321L527.064 77.8372L527.766 77.125ZM521.771 67.61L520.839 67.972L521.771 67.61ZM521.441 43.575L520.505 43.2228L520.502 43.2316L521.441 43.575ZM526.941 34.665L527.669 35.3507L526.941 34.665ZM535.631 28.67L536.026 29.5887L536.035 29.585L535.631 28.67ZM557.191 28.175L556.831 29.1081L556.838 29.1106L556.845 29.1131L557.191 28.175ZM565.111 33.18L564.404 33.8871L564.41 33.8929L565.111 33.18ZM570.281 41.32L569.345 41.6712L569.35 41.684L570.281 41.32ZM571.436 56.83L572.3 57.3339H572.3L571.436 56.83ZM570.391 57.765L570.707 58.7137L570.742 58.7021L570.776 58.6881L570.391 57.765ZM559.566 48.965C559.566 47.294 559.333 45.6912 558.862 44.1609L556.95 44.7491C557.36 46.0788 557.566 47.4826 557.566 48.965H559.566ZM558.869 44.1835C558.429 42.6236 557.704 41.2318 556.694 40.0198L555.158 41.3002C555.981 42.2882 556.577 43.4264 556.944 44.7265L558.869 44.1835ZM556.694 40.0198C555.674 38.795 554.393 37.8436 552.87 37.1622L552.053 38.9878C553.316 39.5531 554.345 40.325 555.158 41.3002L556.694 40.0198ZM552.889 37.1713C551.332 36.4336 549.51 36.085 547.456 36.085V38.085C549.289 38.085 550.804 38.3964 552.033 38.9787L552.889 37.1713ZM547.456 36.085C543.631 36.085 540.509 37.1727 538.224 39.4579L539.638 40.8721C541.46 39.0506 544.021 38.085 547.456 38.085V36.085ZM538.224 39.4579C535.981 41.7014 534.575 44.8512 533.929 48.8037L535.903 49.1263C536.504 45.4521 537.775 42.7353 539.638 40.8721L538.224 39.4579ZM534.916 49.965H558.566V47.965H534.916V49.965ZM533.7 58.0743C534.188 63.5114 535.738 67.6717 538.51 70.3624L539.903 68.9276C537.614 66.705 536.158 63.0919 535.692 57.8957L533.7 58.0743ZM538.515 70.3674C541.297 73.03 544.895 74.33 549.216 74.33V72.33C545.324 72.33 542.249 71.1733 539.898 68.9226L538.515 70.3674ZM549.216 74.33C551.378 74.33 553.281 74.0841 554.908 73.5682L554.304 71.6618C552.924 72.0992 551.235 72.33 549.216 72.33V74.33ZM554.922 73.5637C556.499 73.0381 557.887 72.4693 559.08 71.8536L558.163 70.0764C557.082 70.6341 555.793 71.1652 554.29 71.6663L554.922 73.5637ZM559.09 71.8481C560.262 71.2258 561.304 70.6772 562.218 70.2022L561.295 68.4278C560.375 68.9061 559.327 69.4575 558.152 70.0819L559.09 71.8481ZM562.23 70.1955C563.064 69.7464 563.838 69.545 564.561 69.545V67.545C563.451 67.545 562.355 67.857 561.282 68.4345L562.23 70.1955ZM564.561 69.545C565.444 69.545 566.054 69.8557 566.511 70.465L568.111 69.265C567.248 68.1143 566.025 67.545 564.561 67.545V69.545ZM566.53 70.4897L570.93 75.9897L572.492 74.7403L568.092 69.2403L566.53 70.4897ZM570.954 74.7118C569.399 76.5139 567.693 78.0072 565.836 79.1983L566.916 80.8817C568.946 79.5795 570.796 77.9561 572.468 76.0182L570.954 74.7118ZM565.848 79.1911C563.964 80.3637 562.014 81.3031 559.995 82.0114L560.657 83.8986C562.819 83.1402 564.901 82.1363 566.905 80.8889L565.848 79.1911ZM560.01 82.0063C557.982 82.6823 555.939 83.1438 553.881 83.3922L554.121 85.3778C556.316 85.1128 558.49 84.621 560.642 83.9037L560.01 82.0063ZM553.865 83.3944C551.779 83.682 549.772 83.825 547.841 83.825V85.825C549.87 85.825 551.97 85.6747 554.138 85.3756L553.865 83.3944ZM547.841 83.825C543.991 83.825 540.407 83.2015 537.08 81.9629L536.382 83.8371C539.949 85.1651 543.771 85.825 547.841 85.825V83.825ZM537.092 81.9674C533.808 80.6961 530.936 78.8454 528.468 76.4128L527.064 77.8372C529.73 80.4646 532.835 82.4639 536.37 83.8326L537.092 81.9674ZM528.478 76.423C526.055 73.9649 524.127 70.9133 522.703 67.248L520.839 67.972C522.349 71.86 524.417 75.1518 527.054 77.827L528.478 76.423ZM522.703 67.248C521.291 63.61 520.571 59.3555 520.571 54.465H518.571C518.571 59.5478 519.318 64.0567 520.839 67.972L522.703 67.248ZM520.571 54.465C520.571 50.725 521.176 47.2119 522.38 43.9184L520.502 43.2316C519.213 46.7581 518.571 50.505 518.571 54.465H520.571ZM522.377 43.9272C523.616 40.635 525.381 37.7798 527.669 35.3507L526.213 33.9793C523.735 36.6102 521.833 39.695 520.505 43.2228L522.377 43.9272ZM527.669 35.3507C529.952 32.9269 532.733 31.005 536.026 29.5886L535.236 27.7514C531.709 29.2684 528.697 31.3431 526.213 33.9793L527.669 35.3507ZM536.035 29.585C539.3 28.1456 543.009 27.415 547.181 27.415V25.415C542.773 25.415 538.783 26.1878 535.228 27.755L536.035 29.585ZM547.181 27.415C550.702 27.415 553.915 27.9837 556.831 29.1081L557.551 27.2419C554.381 26.0196 550.92 25.415 547.181 25.415V27.415ZM556.845 29.1131C559.797 30.2026 562.312 31.7949 564.404 33.8871L565.818 32.4729C563.51 30.1651 560.745 28.4207 557.537 27.2368L556.845 29.1131ZM564.41 33.8929C566.533 35.9812 568.181 38.5672 569.345 41.6711L571.218 40.9689C569.961 37.6195 568.163 34.7788 565.812 32.4671L564.41 33.8929ZM569.35 41.684C570.543 44.7374 571.151 48.2587 571.151 52.265H573.151C573.151 48.058 572.513 44.2826 571.213 40.956L569.35 41.684ZM571.151 52.265C571.151 53.3752 571.097 54.256 570.997 54.9217L572.975 55.2183C573.095 54.4173 573.151 53.4281 573.151 52.265H571.151ZM570.997 54.9217C570.898 55.5818 570.743 56.0335 570.572 56.3261L572.3 57.3339C572.643 56.7465 572.854 56.0248 572.975 55.2183L570.997 54.9217ZM570.572 56.3261C570.417 56.5917 570.231 56.7483 570.007 56.8419L570.776 58.6881C571.431 58.415 571.942 57.9483 572.3 57.3339L570.572 56.3261ZM570.075 56.8163C569.774 56.9165 569.324 56.985 568.686 56.985V58.985C569.442 58.985 570.128 58.9068 570.707 58.7137L570.075 56.8163ZM568.686 56.985H534.696V58.985H568.686V56.985ZM622.326 38.955L623.165 39.4983L623.167 39.4958L622.326 38.955ZM621.061 40.33L621.598 41.1737L621.607 41.1679L621.615 41.162L621.061 40.33ZM617.101 40.165L616.671 41.0679L617.101 40.165ZM614.516 39.01L614.097 39.918L614.111 39.9247L614.126 39.931L614.516 39.01ZM611.216 37.8L610.926 38.7571L610.934 38.7594L611.216 37.8ZM601.261 38.79L601.85 39.5978L601.857 39.5927L601.864 39.5874L601.261 38.79ZM600.381 45.61L599.674 46.3171L600.381 45.61ZM603.406 47.645L602.98 48.5498L602.996 48.5573L603.012 48.5641L603.406 47.645ZM607.751 49.24L607.448 50.1929L607.457 50.1961L607.467 50.199L607.751 49.24ZM612.701 50.835L612.372 51.7795L612.379 51.7816L612.701 50.835ZM617.706 52.87L618.137 51.9675L617.706 52.87ZM621.996 55.785L621.31 56.5132L621.321 56.5236L621.333 56.5336L621.996 55.785ZM625.076 59.965L624.17 60.3879L624.173 60.3957L625.076 59.965ZM624.691 73.495L623.775 73.0942L623.772 73.1011L624.691 73.495ZM620.291 79.49L620.946 80.2452L620.291 79.49ZM597.246 84.33L597.435 83.348L597.425 83.3462L597.416 83.3447L597.246 84.33ZM591.801 82.9L591.443 83.8339L591.452 83.8372L591.461 83.8404L591.801 82.9ZM586.961 80.645L586.472 81.5171L586.961 80.645ZM583.056 77.895L582.206 77.3672L581.765 78.0783L582.387 78.6383L583.056 77.895ZM586.576 72.23L587.425 72.7578L587.429 72.7514L586.576 72.23ZM588.061 70.69L587.554 69.8281L587.542 69.8349L587.531 69.842L588.061 70.69ZM592.956 70.855L592.429 71.7053L592.444 71.7145L592.46 71.7232L592.956 70.855ZM595.541 72.34L595.041 73.2062L595.054 73.2135L595.067 73.2205L595.541 72.34ZM598.896 73.825L598.548 74.7624L598.563 74.7683L598.58 74.7737L598.896 73.825ZM607.586 73.99L607.289 73.0349L607.586 73.99ZM610.171 72.67L610.811 73.4382L610.823 73.428L610.835 73.4174L610.171 72.67ZM611.601 70.745L610.689 70.3346L610.684 70.3457L610.679 70.3569L611.601 70.745ZM610.886 65.465L610.162 66.1555L610.178 66.1723L610.195 66.1884L610.886 65.465ZM607.806 63.375L607.38 64.2799L607.39 64.2845L607.806 63.375ZM603.461 61.78L603.183 62.7407L603.461 61.78ZM598.401 60.185L598.072 61.1295L598.078 61.1316L598.401 60.185ZM593.396 58.095L592.949 58.9895L592.957 58.9934L593.396 58.095ZM589.051 55.07L588.344 55.7771L588.354 55.7875L588.365 55.7976L589.051 55.07ZM585.971 50.505L585.052 50.8989L585.055 50.9068L585.059 50.9146L585.971 50.505ZM586.191 37.305L587.107 37.7067L587.109 37.7008L586.191 37.305ZM590.316 31.695L590.976 32.4457L590.316 31.695ZM597.136 27.845L596.808 26.9002L596.804 26.9015L597.136 27.845ZM617.651 28.395L617.279 29.3235L617.651 28.395ZM625.791 33.565L626.632 34.1058L627.068 33.4278L626.498 32.8579L625.791 33.565ZM621.486 38.4117C621.129 38.9635 620.796 39.3045 620.506 39.4979L621.615 41.162C622.205 40.7689 622.716 40.1932 623.165 39.4982L621.486 38.4117ZM620.524 39.4863C620.345 39.6 619.993 39.715 619.356 39.715V41.715C620.185 41.715 620.97 41.5733 621.598 41.1737L620.524 39.4863ZM619.356 39.715C618.794 39.715 618.188 39.5752 617.531 39.2621L616.671 41.0679C617.553 41.4881 618.451 41.715 619.356 41.715V39.715ZM617.531 39.2621C616.745 38.888 615.87 38.4969 614.905 38.089L614.126 39.931C615.069 40.3297 615.917 40.7087 616.671 41.0679L617.531 39.2621ZM614.935 38.102C613.928 37.6375 612.781 37.218 611.498 36.8406L610.934 38.7594C612.144 39.1153 613.197 39.5025 614.097 39.918L614.935 38.102ZM611.506 36.843C610.18 36.4412 608.667 36.25 606.981 36.25V38.25C608.522 38.25 609.832 38.4254 610.926 38.757L611.506 36.843ZM606.981 36.25C604.4 36.25 602.25 36.7875 600.657 37.9926L601.864 39.5874C602.985 38.7392 604.649 38.25 606.981 38.25V36.25ZM600.671 37.9822C599.062 39.1565 598.226 40.7739 598.226 42.75H600.226C600.226 41.4261 600.746 40.4035 601.85 39.5978L600.671 37.9822ZM598.226 42.75C598.226 44.1389 598.707 45.3506 599.674 46.3171L601.088 44.9029C600.514 44.3294 600.226 43.6344 600.226 42.75H598.226ZM599.674 46.3171C600.544 47.1872 601.655 47.9264 602.98 48.5498L603.832 46.7402C602.663 46.1902 601.758 45.5728 601.088 44.9029L599.674 46.3171ZM603.012 48.5641C604.33 49.1292 605.81 49.6718 607.448 50.1929L608.054 48.2871C606.465 47.7816 605.048 47.2608 603.8 46.7259L603.012 48.5641ZM607.467 50.199C609.065 50.6709 610.7 51.1977 612.372 51.7795L613.029 49.8905C611.329 49.299 609.664 48.7624 608.034 48.281L607.467 50.199ZM612.379 51.7816C614.066 52.356 615.698 53.0196 617.275 53.7725L618.137 51.9675C616.487 51.1804 614.783 50.4874 613.023 49.8884L612.379 51.7816ZM617.275 53.7725C618.799 54.4999 620.142 55.4139 621.31 56.5132L622.681 55.0568C621.356 53.8095 619.839 52.7801 618.137 51.9675L617.275 53.7725ZM621.333 56.5336C622.507 57.5739 623.454 58.8541 624.17 60.3879L625.982 59.5421C625.158 57.7759 624.051 56.2694 622.659 55.0364L621.333 56.5336ZM624.173 60.3957C624.863 61.8412 625.231 63.6471 625.231 65.85H627.231C627.231 63.4329 626.828 61.3154 625.978 59.5343L624.173 60.3957ZM625.231 65.85C625.231 68.4723 624.742 70.883 623.775 73.0942L625.607 73.8958C626.693 71.4137 627.231 68.7277 627.231 65.85H625.231ZM623.772 73.1011C622.843 75.2689 621.467 77.1447 619.635 78.7348L620.946 80.2452C623.001 78.462 624.559 76.3411 625.61 73.8889L623.772 73.1011ZM619.635 78.7348C617.809 80.3199 615.512 81.5807 612.718 82.5001L613.343 84.3999C616.343 83.4126 618.886 82.0334 620.946 80.2452L619.635 78.7348ZM612.718 82.5001C609.943 83.4134 606.716 83.88 603.021 83.88V85.88C606.879 85.88 610.325 85.3932 613.343 84.3999L612.718 82.5001ZM603.021 83.88C601.141 83.88 599.279 83.7027 597.435 83.348L597.057 85.312C599.026 85.6907 601.014 85.88 603.021 85.88V83.88ZM597.416 83.3447C595.564 83.0241 593.806 82.562 592.141 81.9596L591.461 83.8404C593.242 84.4847 595.114 84.9759 597.075 85.3154L597.416 83.3447ZM592.158 81.9661C590.477 81.3223 588.908 80.5909 587.45 79.7729L586.472 81.5171C588.02 82.3858 589.678 83.1577 591.443 83.8339L592.158 81.9661ZM587.45 79.7729C586.001 78.9599 584.762 78.0849 583.725 77.1517L582.387 78.6383C583.55 79.6851 584.914 80.6434 586.472 81.5171L587.45 79.7729ZM583.905 78.4228L587.425 72.7578L585.726 71.7022L582.206 77.3672L583.905 78.4228ZM587.429 72.7514C587.761 72.2081 588.151 71.8131 588.591 71.538L587.531 69.842C586.798 70.3002 586.197 70.9319 585.722 71.7085L587.429 72.7514ZM588.568 71.5519C588.996 71.3 589.596 71.14 590.426 71.14V69.14C589.349 69.14 588.372 69.3466 587.554 69.8281L588.568 71.5519ZM590.426 71.14C591.159 71.14 591.82 71.3277 592.429 71.7053L593.482 70.0047C592.552 69.4289 591.526 69.14 590.426 69.14V71.14ZM592.46 71.7232C593.228 72.1624 594.089 72.6567 595.041 73.2062L596.041 71.4738C595.086 70.9233 594.223 70.4276 593.452 69.9868L592.46 71.7232ZM595.067 73.2205C596.07 73.7605 597.232 74.2737 598.548 74.7624L599.244 72.8876C597.993 72.423 596.919 71.9462 596.015 71.4595L595.067 73.2205ZM598.58 74.7737C600.033 75.2582 601.779 75.485 603.791 75.485V73.485C601.916 73.485 600.398 73.2718 599.212 72.8763L598.58 74.7737ZM603.791 75.485C605.328 75.485 606.698 75.3126 607.882 74.9451L607.289 73.0349C606.347 73.3274 605.187 73.485 603.791 73.485V75.485ZM607.882 74.9451C609.036 74.5871 610.025 74.0935 610.811 73.4382L609.531 71.9018C608.997 72.3465 608.262 72.7329 607.289 73.0349L607.882 74.9451ZM610.835 73.4174C611.588 72.7482 612.162 71.9885 612.522 71.1331L610.679 70.3569C610.453 70.8949 610.074 71.4184 609.506 71.9226L610.835 73.4174ZM612.513 71.1554C612.898 70.2989 613.096 69.4078 613.096 68.49H611.096C611.096 69.1122 610.963 69.7245 610.689 70.3346L612.513 71.1554ZM613.096 68.49C613.096 67.0056 612.605 65.7235 611.576 64.7416L610.195 66.1884C610.78 66.7465 611.096 67.4811 611.096 68.49H613.096ZM611.609 64.7745C610.732 63.8552 609.591 63.0915 608.222 62.4655L607.39 64.2845C608.587 64.8318 609.5 65.4615 610.162 66.1555L611.609 64.7745ZM608.232 62.4702C606.927 61.8563 605.427 61.3072 603.738 60.8193L603.183 62.7407C604.794 63.2061 606.191 63.7204 607.38 64.2798L608.232 62.4702ZM603.738 60.8193C602.104 60.3472 600.432 59.8203 598.723 59.2383L598.078 61.1316C599.816 61.7231 601.517 62.2595 603.183 62.7407L603.738 60.8193ZM598.729 59.2405C597.081 58.6673 595.45 57.9862 593.835 57.1966L592.957 58.9934C594.641 59.8171 596.347 60.5293 598.072 61.1295L598.729 59.2405ZM593.843 57.2006C592.315 56.4366 590.948 55.4839 589.737 54.3424L588.365 55.7976C589.721 57.0761 591.25 58.1401 592.949 58.9894L593.843 57.2006ZM589.758 54.3629C588.607 53.2116 587.646 51.7942 586.883 50.0954L585.059 50.9146C585.909 52.8092 587.002 54.4351 588.344 55.7771L589.758 54.3629ZM586.89 50.1111C586.187 48.4713 585.816 46.4316 585.816 43.96H583.816C583.816 46.6217 584.214 48.9454 585.052 50.8989L586.89 50.1111ZM585.816 43.96C585.816 41.7476 586.247 39.6664 587.107 37.7067L585.275 36.9033C584.301 39.1236 583.816 41.4791 583.816 43.96H585.816ZM587.109 37.7008C587.964 35.7175 589.248 33.9667 590.976 32.4457L589.655 30.9443C587.717 32.6499 586.251 34.6392 585.272 36.9092L587.109 37.7008ZM590.976 32.4457C592.698 30.9308 594.854 29.7067 597.467 28.7885L596.804 26.9015C593.991 27.89 591.6 29.2325 589.655 30.9443L590.976 32.4457ZM597.463 28.7898C600.087 27.8804 603.144 27.415 606.651 27.415V25.415C602.971 25.415 599.685 25.9029 596.808 26.9002L597.463 28.7898ZM606.651 27.415C610.574 27.415 614.112 28.0567 617.279 29.3235L618.022 27.4665C614.589 26.0933 610.794 25.415 606.651 25.415V27.415ZM617.279 29.3235C620.476 30.6022 623.069 32.257 625.084 34.2721L626.498 32.8579C624.26 30.6197 621.425 28.8278 618.022 27.4665L617.279 29.3235ZM624.95 33.0242L621.485 38.4142L623.167 39.4958L626.632 34.1058L624.95 33.0242Z" fill="#888888"/>
</svg>
