<svg width="19" height="19" viewBox="0 0 19 19" fill="none" xmlns="http://www.w3.org/2000/svg">
                            <path d="M11.593 7.21361C11.3679 6.99309 11.1183 6.79762 10.8488 6.63076C10.1352 6.18572 9.30554 5.94923 8.45811 5.94923C7.28191 5.94709 6.1535 6.40222 5.32325 7.21361L1.29543 11.1393C0.466593 11.9481 0.000743072 13.0438 9.17831e-07 14.1864C-0.00155761 16.5709 1.98192 18.505 4.43029 18.5066C5.60468 18.5105 6.73205 18.0576 7.562 17.2484L10.8868 14.0103C10.9473 13.952 10.981 13.8724 10.9805 13.7896C10.9795 13.6193 10.8369 13.482 10.662 13.483H10.5354C9.84071 13.4854 9.15225 13.3555 8.5088 13.1006C8.39024 13.0531 8.25398 13.0799 8.16366 13.1685L5.77292 15.4998C5.03055 16.2228 3.82692 16.2228 3.08454 15.4998C2.34217 14.7768 2.34217 13.6047 3.08454 12.8817L7.12821 8.94671C7.86999 8.2252 9.07165 8.2252 9.81343 8.94671C10.3133 9.40491 11.0931 9.40491 11.593 8.94671C11.8081 8.73707 11.9385 8.45902 11.9603 8.1634C11.9835 7.81015 11.8497 7.46419 11.593 7.21361Z" fill="#7EDAEE"/>
                            <path d="M17.7015 1.26457C15.9701 -0.421524 13.1631 -0.421524 11.4317 1.26457L8.11002 4.49637C8.01881 4.58563 7.9925 4.71988 8.04353 4.8356C8.09396 4.95164 8.21181 5.02612 8.34117 5.0237H8.45832C9.15216 5.02247 9.83951 5.1534 10.4817 5.40918C10.6003 5.4567 10.7366 5.42989 10.8269 5.34135L13.2113 3.02233C13.9537 2.29935 15.1573 2.29935 15.8997 3.02233C16.6421 3.74531 16.6421 4.91749 15.8997 5.64046L12.9295 8.52996L12.9041 8.55771L11.8655 9.56304C11.1237 10.2845 9.92204 10.2845 9.18025 9.56304C8.68034 9.10485 7.90055 9.10485 7.40067 9.56304C7.18422 9.77427 7.05371 10.0547 7.03334 10.3525C7.01018 10.7057 7.14396 11.0517 7.40067 11.3023C7.76718 11.6607 8.196 11.9531 8.66727 12.1657C8.73377 12.1966 8.80027 12.2213 8.86677 12.249C8.93326 12.2768 9.00291 12.2983 9.06941 12.323C9.13591 12.3477 9.20556 12.3693 9.27206 12.3878L9.4589 12.4371C9.58555 12.4679 9.71223 12.4926 9.84204 12.5142C9.99841 12.5368 10.1559 12.5512 10.3139 12.5574H10.5355H10.5545L10.7445 12.5358C10.8142 12.5327 10.887 12.5173 10.9693 12.5173H11.077L11.2955 12.4865L11.3968 12.468L11.5805 12.431H11.6153C12.3931 12.2407 13.1034 11.8485 13.6704 11.2961L17.7014 7.37047C19.4328 5.68437 19.4328 2.95067 17.7015 1.26457Z" fill="#7EDAEE"/>
                        </svg> 