<svg width="86" height="651" viewBox="0 0 86 651" fill="none" xmlns="http://www.w3.org/2000/svg">
			<path d="M81.805 80.834L81.4316 81.7617L82.805 82.3145L82.805 80.834L81.805 80.834ZM1.99999 48.714L0.999993 48.714L0.999993 49.3895L1.62662 49.6417L1.99999 48.714ZM1.99999 33.754L1.62662 32.8263L0.999993 33.0785L0.999993 33.754L1.99999 33.754ZM81.805 1.63402L82.805 1.63402L82.805 0.153584L81.4316 0.706341L81.805 1.63402ZM80.76 18.409L79.976 17.7883L79.9618 17.8062L79.9485 17.8247L80.76 18.409ZM78.175 20.444L78.5266 21.3802L78.5421 21.3744L78.5574 21.368L78.175 20.444ZM32.195 37.714L31.8434 36.7779L31.8373 36.7802L32.195 37.714ZM26.53 39.639L26.2395 38.6821L26.2292 38.6853L26.219 38.6886L26.53 39.639ZM20.15 41.454L19.9112 40.4829L19.9416 42.4321L20.15 41.454ZM26.53 42.994L26.8047 42.0324L26.7931 42.0293L26.53 42.994ZM32.195 44.864L31.8373 45.7979L31.8453 45.8009L32.195 44.864ZM78.175 62.024L78.5464 61.0955L78.5356 61.0912L78.5246 61.0871L78.175 62.024ZM80.65 63.949L79.8691 64.5737L79.8721 64.5774L80.65 63.949ZM82.1784 79.9063L2.37337 47.7863L1.62662 49.6417L81.4316 81.7617L82.1784 79.9063ZM2.99999 48.714L2.99999 33.754L0.999993 33.754L0.999993 48.714L2.99999 48.714ZM2.37337 34.6817L82.1784 2.5617L81.4316 0.706341L1.62662 32.8263L2.37337 34.6817ZM80.805 1.63402L80.805 14.944L82.805 14.944L82.805 1.63402L80.805 1.63402ZM80.805 14.944C80.805 16.2114 80.4983 17.1286 79.976 17.7883L81.544 19.0297C82.4151 17.9295 82.805 16.5366 82.805 14.944L80.805 14.944ZM79.9485 17.8247C79.3993 18.5875 78.6875 19.1497 77.7926 19.52L78.5574 21.368C79.7891 20.8583 80.8007 20.0639 81.5715 18.9933L79.9485 17.8247ZM77.8234 19.5079L31.8434 36.7779L32.5466 38.6502L78.5266 21.3802L77.8234 19.5079ZM31.8373 36.7802C30.1393 37.4305 28.2737 38.0646 26.2395 38.6821L26.8205 40.5959C28.8929 39.9668 30.804 39.3176 32.5526 38.6479L31.8373 36.7802ZM26.219 38.6886C24.228 39.3402 22.1256 39.9384 19.9112 40.4829L20.3888 42.4251C22.6477 41.8696 24.7986 41.2578 26.841 40.5894L26.219 38.6886ZM19.9416 42.4321C22.1616 42.9052 24.2699 43.4142 26.2669 43.9588L26.7931 42.0293C24.7568 41.4739 22.6118 40.9562 20.3584 40.476L19.9416 42.4321ZM26.2553 43.9555C28.2848 44.5354 30.1451 45.1498 31.8373 45.7979L32.5526 43.9302C30.7983 43.2583 28.8818 42.626 26.8047 42.0325L26.2553 43.9555ZM31.8453 45.8009L77.8253 62.9609L78.5246 61.0871L32.5446 43.9271L31.8453 45.8009ZM77.8036 62.9525C78.5319 63.2438 79.2233 63.7664 79.8691 64.5737L81.4309 63.3243C80.61 62.2983 79.6514 61.5375 78.5464 61.0955L77.8036 62.9525ZM79.8721 64.5774C80.4789 65.3287 80.805 66.2713 80.805 67.469L82.805 67.469C82.805 65.8801 82.3611 64.476 81.4279 63.3207L79.8721 64.5774ZM80.805 67.469L80.805 80.834L82.805 80.834L82.805 67.469L80.805 67.469ZM58.705 107.25L58.705 108.25L59.705 108.25L59.705 107.25L58.705 107.25ZM1.99999 107.25L0.99999 107.25L0.99999 108.25L1.99999 108.25L1.99999 107.25ZM1.99999 92.0703L1.99999 91.0703L0.999991 91.0703L0.999991 92.0703L1.99999 92.0703ZM58.705 92.0703L59.705 92.0703L59.705 91.0703L58.705 91.0703L58.705 92.0703ZM68.33 106.205L69.052 105.513L69.0446 105.506L69.0371 105.498L68.33 106.205ZM66.35 103.18L67.2765 102.804L67.2722 102.794L66.35 103.18ZM66.35 95.9203L65.4324 95.5227L65.4278 95.5336L66.35 95.9203ZM68.33 93.0054L69.0371 93.7125L69.0371 93.7125L68.33 93.0054ZM71.245 90.9704L70.8474 90.0528L70.8347 90.0583L70.8221 90.0642L71.245 90.9704ZM78.395 90.9704L78.8066 90.059L78.7996 90.0558L78.7926 90.0528L78.395 90.9704ZM81.365 93.0054L80.6579 93.7125L80.6579 93.7125L81.365 93.0054ZM83.345 95.9204L84.2673 95.5336L84.2626 95.5227L83.345 95.9204ZM83.345 103.18L82.4227 102.794L82.4185 102.804L83.345 103.18ZM81.365 106.205L80.6579 105.498L80.6504 105.506L80.643 105.513L81.365 106.205ZM78.395 108.295L77.9834 107.384L77.9721 107.389L78.395 108.295ZM58.705 106.25L1.99999 106.25L1.99999 108.25L58.705 108.25L58.705 106.25ZM2.99999 107.25L2.99999 92.0703L0.999991 92.0703L0.99999 107.25L2.99999 107.25ZM1.99999 93.0703L58.705 93.0703L58.705 91.0703L1.99999 91.0703L1.99999 93.0703ZM57.705 92.0703L57.705 107.25L59.705 107.25L59.705 92.0703L57.705 92.0703ZM74.82 108.065C73.6742 108.065 72.6279 107.837 71.6679 107.389L70.8221 109.202C72.0621 109.78 73.3991 110.065 74.82 110.065L74.82 108.065ZM71.6679 107.389C70.6804 106.928 69.8101 106.305 69.052 105.513L67.608 106.897C68.5366 107.866 69.6095 108.636 70.8221 109.202L71.6679 107.389ZM69.0371 105.498C68.294 104.755 67.706 103.861 67.2765 102.804L65.4235 103.557C65.9473 104.846 66.6793 105.969 67.6229 106.912L69.0371 105.498ZM67.2722 102.794C66.8504 101.788 66.635 100.692 66.635 99.4953L64.635 99.4953C64.635 100.939 64.8962 102.299 65.4278 103.567L67.2722 102.794ZM66.635 99.4953C66.635 98.3799 66.8475 97.3198 67.2722 96.3071L65.4278 95.5336C64.8992 96.7942 64.635 98.1174 64.635 99.4953L66.635 99.4953ZM67.2676 96.318C67.6944 95.3328 68.2832 94.4663 69.0371 93.7125L67.6229 92.2982C66.6901 93.2311 65.9589 94.3079 65.4324 95.5227L67.2676 96.318ZM69.0371 93.7125C69.7965 92.953 70.6716 92.3415 71.6679 91.8765L70.8221 90.0642C69.6184 90.6259 68.5501 91.371 67.6229 92.2982L69.0371 93.7125ZM71.6426 91.8879C72.6084 91.4694 73.6637 91.2554 74.82 91.2554L74.82 89.2554C73.4097 89.2554 72.0816 89.518 70.8474 90.0528L71.6426 91.8879ZM74.82 91.2554C75.9763 91.2554 77.0316 91.4694 77.9974 91.8879L78.7926 90.0528C77.5584 89.518 76.2303 89.2554 74.82 89.2554L74.82 91.2554ZM77.9834 91.8817C79.0151 92.3477 79.9038 92.9584 80.6579 93.7125L82.0721 92.2982C81.1395 91.3657 80.0482 90.6197 78.8066 90.059L77.9834 91.8817ZM80.6579 93.7125C81.4117 94.4663 82.0006 95.3328 82.4274 96.318L84.2626 95.5227C83.7361 94.3079 83.0049 93.2311 82.0721 92.2982L80.6579 93.7125ZM82.4228 96.3071C82.8475 97.3198 83.06 98.3799 83.06 99.4954L85.06 99.4954C85.06 98.1174 84.7958 96.7942 84.2672 95.5336L82.4228 96.3071ZM83.06 99.4954C83.06 100.692 82.8445 101.788 82.4228 102.794L84.2672 103.567C84.7988 102.299 85.06 100.939 85.06 99.4954L83.06 99.4954ZM82.4185 102.804C81.989 103.861 81.401 104.755 80.6579 105.498L82.0721 106.912C83.0157 105.969 83.7477 104.846 84.2715 103.557L82.4185 102.804ZM80.643 105.513C79.8902 106.299 79.0063 106.922 77.9834 107.384L78.8066 109.207C80.057 108.642 81.1531 107.872 82.087 106.897L80.643 105.513ZM77.9721 107.389C77.0121 107.837 75.9657 108.065 74.82 108.065L74.82 110.065C76.2409 110.065 77.5779 109.78 78.8179 109.202L77.9721 107.389ZM49.355 139.95L49.2109 138.96L46.287 139.386L48.8685 140.823L49.355 139.95ZM57 146.165L56.2179 146.788L56.2179 146.788L57 146.165ZM57.99 160.685L57.9021 161.681L58.4562 161.73L58.79 161.285L57.99 160.685ZM46.77 159.695L46.5275 160.665L46.6038 160.684L46.6821 160.691L46.77 159.695ZM45.23 158.815L44.4108 159.388L44.4159 159.395L44.4213 159.403L45.23 158.815ZM45.065 154.745L44.0786 154.58L44.0759 154.596L44.0738 154.612L45.065 154.745ZM44.735 147.925L45.6739 147.58L45.67 147.57L44.735 147.925ZM43.03 145.065L43.7846 144.408L43.7846 144.408L43.03 145.065ZM40.335 142.755L40.883 141.918L40.8728 141.911L40.8624 141.905L40.335 142.755ZM36.705 140.885L37.1019 139.967L36.9119 139.885L36.705 139.885L36.705 140.885ZM1.99999 140.885L0.999989 140.885L0.999989 141.885L1.99999 141.885L1.99999 140.885ZM1.99999 125.705L1.99999 124.705L0.999989 124.705L0.999989 125.705L1.99999 125.705ZM58.705 125.705L59.705 125.705L59.705 124.705L58.705 124.705L58.705 125.705ZM55.02 139.125L55.1641 140.114L55.1851 140.111L55.2059 140.107L55.02 139.125ZM48.8685 140.823C52.0068 142.571 54.4456 144.564 56.2179 146.788L57.782 145.541C55.8144 143.072 53.1565 140.922 49.8415 139.076L48.8685 140.823ZM56.2179 146.788C57.9393 148.948 58.805 151.475 58.805 154.415L60.805 154.415C60.805 151.047 59.8007 148.075 57.782 145.541L56.2179 146.788ZM58.805 154.415C58.805 156.824 58.2385 158.687 57.19 160.085L58.79 161.285C60.1615 159.456 60.805 157.138 60.805 154.415L58.805 154.415ZM58.0779 159.688L46.8579 158.698L46.6821 160.691L57.9021 161.681L58.0779 159.688ZM47.0125 158.724C46.3942 158.57 46.1384 158.363 46.0387 158.226L44.4213 159.403C44.9083 160.072 45.6791 160.453 46.5275 160.665L47.0125 158.724ZM46.0492 158.241C45.954 158.105 45.845 157.822 45.845 157.275L43.845 157.275C43.845 158.047 43.9927 158.791 44.4108 159.388L46.0492 158.241ZM45.845 157.275C45.845 156.755 45.9112 155.964 46.0562 154.877L44.0738 154.612C43.9254 155.725 43.845 156.621 43.845 157.275L45.845 157.275ZM46.0514 154.909C46.2423 153.764 46.34 152.681 46.34 151.665L44.34 151.665C44.34 152.554 44.2544 153.526 44.0786 154.58L46.0514 154.909ZM46.34 151.665C46.34 150.175 46.1245 148.809 45.6739 147.58L43.7961 148.269C44.1522 149.24 44.34 150.367 44.34 151.665L46.34 151.665ZM45.67 147.57C45.2255 146.398 44.5968 145.342 43.7846 144.408L42.2754 145.721C42.9299 146.473 43.4378 147.324 43.8 148.279L45.67 147.57ZM43.7846 144.408C42.9834 143.487 42.0128 142.658 40.883 141.918L39.787 143.591C40.7838 144.244 41.6099 144.955 42.2754 145.721L43.7846 144.408ZM40.8624 141.905C39.7506 141.215 38.4958 140.569 37.1019 139.967L36.3081 141.802C37.6275 142.373 38.7927 142.974 39.8076 143.604L40.8624 141.905ZM36.705 139.885L1.99999 139.885L1.99999 141.885L36.705 141.885L36.705 139.885ZM2.99999 140.885L2.99999 125.705L0.999989 125.705L0.999989 140.885L2.99999 140.885ZM1.99999 126.705L58.705 126.705L58.705 124.705L1.99999 124.705L1.99999 126.705ZM57.705 125.705L57.705 134.67L59.705 134.67L59.705 125.705L57.705 125.705ZM57.705 134.67C57.705 136.16 57.4248 136.883 57.1505 137.176L58.6095 138.544C59.4352 137.663 59.705 136.259 59.705 134.67L57.705 134.67ZM57.1505 137.176C56.8169 137.531 56.1162 137.899 54.8341 138.142L55.2059 140.107C56.6371 139.836 57.8431 139.361 58.6095 138.544L57.1505 137.176ZM54.8759 138.135L49.2109 138.96L49.4991 140.939L55.1641 140.114L54.8759 138.135ZM2.21999 185.429L1.28798 185.067L1.28505 185.075L1.28224 185.082L2.21999 185.429ZM5.46499 180.424L6.1626 181.141L6.1626 181.141L5.46499 180.424ZM10.525 177.344L10.8569 178.288L10.8569 178.288L10.525 177.344ZM47.815 176.299L47.815 177.299L48.815 177.299L48.815 176.299L47.815 176.299ZM48.585 168.874L47.8539 168.192L47.843 168.204L47.8324 168.216L48.585 168.874ZM56.835 168.049L57.8189 167.871L57.6696 167.049L56.835 167.049L56.835 168.049ZM58.485 177.124L57.5011 177.303L57.6214 177.965L58.2797 178.103L58.485 177.124ZM73.17 180.204L73.4074 179.233L73.3914 179.229L73.3753 179.226L73.17 180.204ZM75.645 191.479L75.645 192.479L76.645 192.479L76.645 191.479L75.645 191.479ZM58.375 191.479L58.375 190.479L57.375 190.479L57.375 191.479L58.375 191.479ZM58.375 206.109L58.375 207.109L59.375 207.109L59.375 206.109L58.375 206.109ZM47.815 206.109L46.815 206.109L46.815 207.109L47.815 207.109L47.815 206.109ZM47.815 191.479L48.815 191.479L48.815 190.479L47.815 190.479L47.815 191.479ZM14.485 192.579L13.8603 191.799L13.851 191.806L13.8418 191.814L14.485 192.579ZM13.33 197.694L12.3685 197.969L12.3774 198L12.3882 198.031L13.33 197.694ZM13.88 199.014L12.9856 199.462L13.0027 199.496L13.0225 199.529L13.88 199.014ZM14.43 200.004L13.5356 200.452L13.5453 200.471L13.5558 200.49L14.43 200.004ZM14.375 202.094L13.575 201.494L13.5495 201.528L13.527 201.564L14.375 202.094ZM13.385 202.974L12.8609 202.123L12.8527 202.128L13.385 202.974ZM6.12499 207.539L5.3401 208.159L5.89677 208.864L6.65729 208.386L6.12499 207.539ZM2.38499 200.444L3.33756 200.14L3.33756 200.14L2.38499 200.444ZM2.11999 192.249C2.11999 189.777 2.47338 187.624 3.15774 185.777L1.28224 185.082C0.499927 187.194 0.119987 189.589 0.119986 192.249L2.11999 192.249ZM3.15199 185.792C3.87495 183.933 4.88101 182.389 6.1626 181.141L4.76737 179.708C3.26229 181.173 2.10502 182.966 1.28798 185.067L3.15199 185.792ZM6.1626 181.141C7.44388 179.893 9.00278 178.94 10.8569 178.288L10.1931 176.401C8.08719 177.142 6.27277 178.242 4.76737 179.708L6.1626 181.141ZM10.8569 178.288C12.7123 177.635 14.834 177.299 17.235 177.299L17.235 175.299C14.6493 175.299 12.2976 175.661 10.1931 176.401L10.8569 178.288ZM17.235 177.299L47.815 177.299L47.815 175.299L17.235 175.299L17.235 177.299ZM48.815 176.299L48.815 170.964L46.815 170.964L46.815 176.299L48.815 176.299ZM48.815 170.964C48.815 170.391 48.9897 169.93 49.3376 169.533L47.8324 168.216C47.1536 168.992 46.815 169.925 46.815 170.964L48.815 170.964ZM49.316 169.557C49.579 169.275 50.0408 169.049 50.895 169.049L50.895 167.049C49.6958 167.049 48.6176 167.374 47.8539 168.192L49.316 169.557ZM50.895 169.049L56.835 169.049L56.835 167.049L50.895 167.049L50.895 169.049ZM55.8511 168.228L57.5011 177.303L59.4689 176.946L57.8189 167.871L55.8511 168.228ZM58.2797 178.103L72.9647 181.183L73.3753 179.226L58.6903 176.146L58.2797 178.103ZM72.9325 181.176C73.5825 181.335 73.977 181.608 74.2215 181.939C74.4721 182.279 74.645 182.789 74.645 183.559L76.645 183.559C76.645 182.497 76.4054 181.531 75.831 180.752C75.2505 179.965 74.4075 179.477 73.4074 179.233L72.9325 181.176ZM74.645 183.559L74.645 191.479L76.645 191.479L76.645 183.559L74.645 183.559ZM75.645 190.479L58.375 190.479L58.375 192.479L75.645 192.479L75.645 190.479ZM57.375 191.479L57.375 206.109L59.375 206.109L59.375 191.479L57.375 191.479ZM58.375 205.109L47.815 205.109L47.815 207.109L58.375 207.109L58.375 205.109ZM48.815 206.109L48.815 191.479L46.815 191.479L46.815 206.109L48.815 206.109ZM47.815 190.479L18.225 190.479L18.225 192.479L47.815 192.479L47.815 190.479ZM18.225 190.479C16.499 190.479 15.0067 190.881 13.8603 191.799L15.1097 193.36C15.7966 192.811 16.7976 192.479 18.225 192.479L18.225 190.479ZM13.8418 191.814C12.6607 192.806 12.11 194.19 12.11 195.824L14.11 195.824C14.11 194.673 14.4759 193.893 15.1282 193.345L13.8418 191.814ZM12.11 195.824C12.11 196.619 12.1888 197.34 12.3685 197.969L14.2915 197.42C14.1779 197.022 14.11 196.497 14.11 195.824L12.11 195.824ZM12.3882 198.031C12.581 198.57 12.7795 199.049 12.9856 199.462L14.7744 198.567C14.6138 198.246 14.4456 197.845 14.2717 197.358L12.3882 198.031ZM13.0225 199.529C13.233 199.88 13.4032 200.187 13.5356 200.452L15.3244 199.557C15.1635 199.235 14.9669 198.882 14.7375 198.5L13.0225 199.529ZM13.5558 200.49C13.6687 200.693 13.705 200.858 13.705 200.994L15.705 200.994C15.705 200.471 15.558 199.976 15.3041 199.519L13.5558 200.49ZM13.705 200.994C13.705 201.263 13.6408 201.407 13.575 201.494L15.175 202.694C15.5492 202.195 15.705 201.606 15.705 200.994L13.705 200.994ZM13.527 201.564C13.4608 201.67 13.2783 201.866 12.8609 202.123L13.9091 203.826C14.445 203.496 14.9226 203.105 15.223 202.624L13.527 201.564ZM12.8527 202.128L5.59268 206.693L6.65729 208.386L13.9173 203.821L12.8527 202.128ZM6.90987 206.92C5.33725 204.928 4.14589 202.671 3.33756 200.14L1.43241 200.749C2.31075 203.498 3.61272 205.971 5.3401 208.159L6.90987 206.92ZM3.33756 200.14C2.52625 197.6 2.11999 194.971 2.11999 192.249L0.119986 192.249C0.119986 195.174 0.557059 198.008 1.43241 200.749L3.33756 200.14ZM58.705 269.517L58.705 270.517L59.705 270.517L59.705 269.517L58.705 269.517ZM1.99998 269.517L0.999983 269.517L0.999983 270.517L1.99998 270.517L1.99998 269.517ZM4.63998 256.427L4.39745 255.457L4.36935 255.464L4.34171 255.472L4.63998 256.427ZM8.59998 255.437L8.84252 256.407L10.5237 255.987L9.31859 254.741L8.59998 255.437ZM5.57498 251.917L4.77789 252.521L4.77789 252.521L5.57498 251.917ZM3.20998 248.012L4.11377 247.584L4.10922 247.574L3.20998 248.012ZM1.66998 243.557L2.64513 243.335L2.64399 243.33L1.66998 243.557ZM2.71498 230.137L1.80174 229.729L1.79947 229.734L2.71498 230.137ZM7.16999 224.142L6.52404 223.378L6.52404 223.378L7.16999 224.142ZM13.99 220.457L13.6857 219.504L13.6857 219.504L13.99 220.457ZM58.705 219.192L59.705 219.192L59.705 218.192L58.705 218.192L58.705 219.192ZM58.705 234.372L58.705 235.372L59.705 235.372L59.705 234.372L58.705 234.372ZM15.31 236.517L14.6794 235.741L14.6705 235.748L14.6619 235.755L15.31 236.517ZM14.1 249.002L13.2021 249.442L13.2055 249.449L13.2091 249.456L14.1 249.002ZM17.95 254.337L17.2273 255.028L17.5227 255.337L17.95 255.337L17.95 254.337ZM58.705 254.337L59.705 254.337L59.705 253.337L58.705 253.337L58.705 254.337ZM58.705 268.517L1.99998 268.517L1.99998 270.517L58.705 270.517L58.705 268.517ZM2.99998 269.517L2.99998 260.167L0.999984 260.167L0.999983 269.517L2.99998 269.517ZM2.99998 260.167C2.99998 259.345 3.18497 258.764 3.47695 258.351C3.76554 257.942 4.22301 257.605 4.93826 257.381L4.34171 255.472C3.29695 255.799 2.43443 256.36 1.84302 257.197C1.25499 258.031 0.999984 259.045 0.999984 260.167L2.99998 260.167ZM4.88252 257.397L8.84252 256.407L8.35745 254.467L4.39745 255.457L4.88252 257.397ZM9.31859 254.741C8.2454 253.632 7.26345 252.489 6.37208 251.313L4.77789 252.521C5.71985 253.764 6.75457 254.968 7.88138 256.132L9.31859 254.741ZM6.37208 251.313C5.49755 250.158 4.74477 248.916 4.11372 247.584L2.30625 248.44C2.9952 249.894 3.81909 251.255 4.77789 252.521L6.37208 251.313ZM4.10922 247.574C3.48574 246.293 2.99644 244.881 2.64512 243.335L0.694851 243.778C1.07686 245.459 1.61423 247.017 2.31075 248.449L4.10922 247.574ZM2.64399 243.33C2.29702 241.838 2.11998 240.192 2.11998 238.387L0.119984 238.387C0.119984 240.321 0.309617 242.122 0.695976 243.783L2.64399 243.33ZM2.11998 238.387C2.11998 235.423 2.63133 232.813 3.6305 230.539L1.79947 229.734C0.671973 232.3 0.119985 235.191 0.119984 238.387L2.11998 238.387ZM3.62822 230.544C4.63315 228.292 6.02914 226.417 7.81593 224.905L6.52404 223.378C4.49749 225.093 2.92349 227.215 1.80175 229.729L3.62822 230.544ZM7.81593 224.905C9.6118 223.385 11.7657 222.217 14.2943 221.409L13.6857 219.504C10.9342 220.383 8.54151 221.671 6.52404 223.378L7.81593 224.905ZM14.2943 221.409C16.8234 220.601 19.6159 220.192 22.68 220.192L22.68 218.192C19.4374 218.192 16.4366 218.625 13.6857 219.504L14.2943 221.409ZM22.68 220.192L58.705 220.192L58.705 218.192L22.68 218.192L22.68 220.192ZM57.705 219.192L57.705 234.372L59.705 234.372L59.705 219.192L57.705 219.192ZM58.705 233.372L22.68 233.372L22.68 235.372L58.705 235.372L58.705 233.372ZM22.68 233.372C19.3856 233.372 16.676 234.118 14.6794 235.741L15.9406 237.293C17.4639 236.055 19.6677 235.372 22.68 235.372L22.68 233.372ZM14.6619 235.755C12.6586 237.46 11.725 239.937 11.725 243.007L13.725 243.007C13.725 240.356 14.5147 238.507 15.9581 237.278L14.6619 235.755ZM11.725 243.007C11.725 245.283 12.2168 247.432 13.2021 249.442L14.9979 248.562C14.1499 246.831 13.725 244.984 13.725 243.007L11.725 243.007ZM13.2091 249.456C14.2113 251.422 15.5541 253.279 17.2273 255.028L18.6726 253.645C17.1192 252.021 15.8953 250.322 14.9909 248.547L13.2091 249.456ZM17.95 255.337L58.705 255.337L58.705 253.337L17.95 253.337L17.95 255.337ZM57.705 254.337L57.705 269.517L59.705 269.517L59.705 254.337L57.705 254.337ZM20.645 345.427L21.3287 346.157L21.3316 346.154L20.645 345.427ZM13.66 351.972L13.0422 352.758L13.7172 353.289L14.3437 352.702L13.66 351.972ZM4.30998 339.927L5.22437 339.522L5.22321 339.52L4.30998 339.927ZM4.14498 306.762L3.22655 306.366L3.22401 306.372L4.14498 306.762ZM12.67 294.607L13.3467 295.343L13.3467 295.343L12.67 294.607ZM25.595 286.907L25.9339 287.848L25.9339 287.848L25.595 286.907ZM53.205 285.477L53.4429 284.506L53.4357 284.504L53.205 285.477ZM63.105 289.272L62.6239 290.149L62.6239 290.149L63.105 289.272ZM71.245 295.212L71.9412 294.494L71.9355 294.489L71.245 295.212ZM77.405 303.132L76.538 303.63L76.5428 303.639L77.405 303.132ZM81.31 312.702L80.341 312.949L80.3429 312.956L81.31 312.702ZM81.915 332.117L80.9339 331.924L80.9334 331.926L81.915 332.117ZM79.77 339.487L78.8425 339.113L78.8425 339.113L79.77 339.487ZM76.415 345.757L75.5928 345.188L75.5866 345.197L75.5805 345.206L76.415 345.757ZM72.18 350.982L71.5894 351.789L72.281 352.295L72.8871 351.689L72.18 350.982ZM64.59 345.427L65.1806 344.62L65.17 344.612L65.1592 344.605L64.59 345.427ZM63.325 344.162L64.1387 343.581L64.1387 343.581L63.325 344.162ZM63.71 339.377L62.894 338.799L62.8884 338.807L62.8831 338.815L63.71 339.377ZM65.8 336.077L64.9424 335.562L64.9362 335.573L65.8 336.077ZM67.89 331.182L66.9378 330.877L66.9361 330.882L67.89 331.182ZM67.01 314.572L66.0927 314.97L66.0927 314.97L67.01 314.572ZM61.73 307.367L62.3876 306.614L62.3868 306.613L61.73 307.367ZM53.315 302.747L53.0019 303.697L53.0019 303.697L53.315 302.747ZM30.435 302.857L30.1064 301.912L30.0941 301.917L30.435 302.857ZM21.965 307.752L21.3006 307.005L21.2941 307.01L21.965 307.752ZM16.685 315.012L15.7697 314.609L15.7664 314.617L15.7633 314.624L16.685 315.012ZM15.2 328.982L16.193 328.864L16.1926 328.861L15.2 328.982ZM16.135 333.217L17.0837 332.901L17.0809 332.893L16.135 333.217ZM17.84 336.902L18.6999 336.391L18.6926 336.379L17.84 336.902ZM20.48 340.422L21.2539 339.789L21.2379 339.769L21.221 339.75L20.48 340.422ZM21.305 341.687L20.4106 342.134L20.4106 342.134L21.305 341.687ZM20.635 343.117C20.635 343.762 20.4161 344.268 19.9584 344.7L21.3316 346.154C22.1938 345.34 22.635 344.306 22.635 343.117L20.635 343.117ZM19.9612 344.697L12.9762 351.242L14.3437 352.702L21.3287 346.157L19.9612 344.697ZM14.2778 351.186C10.3005 348.061 7.28525 344.177 5.22437 339.522L3.39559 340.332C5.58804 345.284 8.80616 349.43 13.0422 352.758L14.2778 351.186ZM5.22321 339.52C3.16675 334.91 2.11998 329.372 2.11998 322.877L0.119981 322.877C0.11998 329.582 1.19987 335.41 3.39675 340.334L5.22321 339.52ZM2.11998 322.877C2.11998 317.014 3.10888 311.777 5.06595 307.152L3.22401 306.372C1.14775 311.28 0.119981 316.787 0.119981 322.877L2.11998 322.877ZM5.06339 307.158C7.06403 302.513 9.82578 298.58 13.3467 295.343L11.9932 293.871C8.25419 297.308 5.3326 301.477 3.22657 306.366L5.06339 307.158ZM13.3467 295.343C16.8717 292.103 21.0629 289.603 25.9339 287.848L25.256 285.966C20.1538 287.804 15.7283 290.438 11.9932 293.871L13.3467 295.343ZM25.9339 287.848C30.8003 286.094 36.1291 285.212 41.93 285.212L41.93 283.212C35.9242 283.212 30.363 284.126 25.256 285.966L25.9339 287.848ZM41.93 285.212C45.8187 285.212 49.4992 285.626 52.9743 286.45L53.4357 284.504C49.7974 283.641 45.9613 283.212 41.93 283.212L41.93 285.212ZM52.9671 286.448C56.4822 287.309 59.6996 288.544 62.6239 290.149L63.5861 288.395C60.4971 286.7 57.1144 285.405 53.4429 284.506L52.9671 286.448ZM62.6239 290.149C65.5563 291.758 68.1989 293.687 70.5545 295.935L71.9355 294.489C69.4511 292.117 66.667 290.086 63.5861 288.395L62.6239 290.149ZM70.5488 295.93C72.9017 298.211 74.8977 300.778 76.5381 303.63L78.2719 302.634C76.539 299.62 74.4282 296.906 71.9411 294.494L70.5488 295.93ZM76.5428 303.639C78.2164 306.487 79.4832 309.59 80.3411 312.949L82.2789 312.455C81.3767 308.921 80.0402 305.643 78.2672 302.625L76.5428 303.639ZM80.3429 312.956C81.2359 316.35 81.685 319.967 81.685 323.812L83.685 323.812C83.685 319.81 83.2174 316.021 82.2771 312.447L80.3429 312.956ZM81.685 323.812C81.685 326.687 81.4334 329.39 80.9339 331.924L82.8961 332.31C83.4232 329.637 83.685 326.804 83.685 323.812L81.685 323.812ZM80.9334 331.926C80.431 334.509 79.7332 336.904 78.8425 339.113L80.6974 339.861C81.6401 337.523 82.3723 335.005 82.8966 332.308L80.9334 331.926ZM78.8425 339.113C77.952 341.321 76.8682 343.345 75.5928 345.188L77.2372 346.326C78.6017 344.355 79.7546 342.199 80.6974 339.861L78.8425 339.113ZM75.5805 345.206C74.3317 347.097 72.9621 348.786 71.4729 350.275L72.8871 351.689C74.4778 350.098 75.9316 348.304 77.2494 346.308L75.5805 345.206ZM72.7706 350.175L65.1806 344.62L63.9994 346.234L71.5894 351.789L72.7706 350.175ZM65.1592 344.605C64.7853 344.346 64.4443 344.009 64.1387 343.581L62.5112 344.743C62.939 345.342 63.4413 345.848 64.0208 346.249L65.1592 344.605ZM64.1387 343.581C63.9326 343.292 63.775 342.824 63.775 342.072L61.775 342.072C61.775 343.08 61.984 344.005 62.5112 344.743L64.1387 343.581ZM63.775 342.072C63.775 341.439 63.997 340.733 64.5369 339.939L62.8831 338.815C62.1763 339.854 61.775 340.945 61.775 342.072L63.775 342.072ZM64.526 339.955C65.1717 339.043 65.8845 337.917 66.6638 336.581L64.9362 335.573C64.1755 336.877 63.4949 337.951 62.894 338.799L64.526 339.955ZM66.6575 336.591C67.4801 335.221 68.2053 333.511 68.8438 331.482L66.9361 330.882C66.328 332.813 65.6599 334.367 64.9425 335.562L66.6575 336.591ZM68.8422 331.487C69.5083 329.411 69.825 326.823 69.825 323.757L67.825 323.757C67.825 326.704 67.5183 329.067 66.9378 330.877L68.8422 331.487ZM69.825 323.757C69.825 320.297 69.197 317.098 67.9272 314.174L66.0927 314.97C67.243 317.619 67.825 320.544 67.825 323.757L69.825 323.757ZM67.9272 314.174C66.6576 311.25 64.8084 308.727 62.3876 306.614L61.0723 308.12C63.2716 310.04 64.9424 312.321 66.0927 314.97L67.9272 314.174ZM62.3868 306.613C59.9978 304.532 57.0705 302.932 53.6281 301.797L53.0019 303.697C56.2328 304.762 58.9155 306.242 61.0732 308.121L62.3868 306.613ZM53.6281 301.797C50.1717 300.658 46.268 300.097 41.93 300.097L41.93 302.097C46.0986 302.097 49.7849 302.636 53.0019 303.697L53.6281 301.797ZM41.93 300.097C37.55 300.097 33.6042 300.696 30.1065 301.912L30.7635 303.801C34.0124 302.671 37.73 302.097 41.93 302.097L41.93 300.097ZM30.0941 301.917C26.6558 303.164 23.7182 304.856 21.3006 307.005L22.6293 308.499C24.8317 306.542 27.5408 304.97 30.7759 303.797L30.0941 301.917ZM21.2941 307.01C18.8836 309.191 17.0385 311.726 15.7697 314.609L17.6003 315.415C18.7515 312.798 20.4264 310.493 22.6359 308.494L21.2941 307.01ZM15.7633 314.624C14.5361 317.539 13.925 320.641 13.925 323.922L15.925 323.922C15.925 320.896 16.4872 318.059 17.6066 315.4L15.7633 314.624ZM13.925 323.922C13.925 325.823 14.0181 327.552 14.2073 329.103L16.1926 328.861C16.0152 327.406 15.925 325.76 15.925 323.922L13.925 323.922ZM14.207 329.1C14.3975 330.701 14.7231 332.182 15.189 333.541L17.0809 332.893C16.6668 331.685 16.3691 330.343 16.193 328.864L14.207 329.1ZM15.1863 333.533C15.6493 334.922 16.2492 336.22 16.9874 337.425L18.6926 336.379C18.0374 335.31 17.5006 334.152 17.0837 332.901L15.1863 333.533ZM16.9801 337.413C17.7159 338.652 18.6377 339.878 19.739 341.094L21.221 339.75C20.1956 338.619 19.3574 337.499 18.6998 336.391L16.9801 337.413ZM19.706 341.055C19.9919 341.405 20.2256 341.764 20.4106 342.134L22.1994 341.24C21.9444 340.73 21.6281 340.246 21.2539 339.789L19.706 341.055ZM20.4106 342.134C20.5581 342.429 20.635 342.752 20.635 343.117L22.635 343.117C22.635 342.455 22.4919 341.825 22.1994 341.24L20.4106 342.134ZM15.42 414.142L15.42 415.142L16.42 415.142L16.42 414.142L15.42 414.142ZM1.99998 414.142L0.999977 414.142L0.999977 415.142L1.99998 415.142L1.99998 414.142ZM1.99998 366.787L1.99998 365.787L0.999979 365.787L0.999979 366.787L1.99998 366.787ZM81.805 366.787L82.805 366.787L82.805 365.787L81.805 365.787L81.805 366.787ZM81.805 383.287L81.805 384.287L82.805 384.287L82.805 383.287L81.805 383.287ZM15.42 383.287L15.42 382.287L14.42 382.287L14.42 383.287L15.42 383.287ZM15.42 413.142L1.99998 413.142L1.99998 415.142L15.42 415.142L15.42 413.142ZM2.99998 414.142L2.99998 366.787L0.999979 366.787L0.999977 414.142L2.99998 414.142ZM1.99998 367.787L81.805 367.787L81.805 365.787L1.99998 365.787L1.99998 367.787ZM80.805 366.787L80.805 383.287L82.805 383.287L82.805 366.787L80.805 366.787ZM81.805 382.287L15.42 382.287L15.42 384.287L81.805 384.287L81.805 382.287ZM14.42 383.287L14.42 414.142L16.42 414.142L16.42 383.287L14.42 383.287ZM68.88 446.367L69.88 446.367L69.88 445.367L68.88 445.367L68.88 446.367ZM48.365 446.367L48.365 445.367L47.365 445.367L47.365 446.367L48.365 446.367ZM48.365 472.987L48.365 473.987L49.365 473.987L49.365 472.987L48.365 472.987ZM35.88 472.987L34.88 472.987L34.88 473.987L35.88 473.987L35.88 472.987ZM35.88 446.367L36.88 446.367L36.88 445.367L35.88 445.367L35.88 446.367ZM14.925 446.367L14.925 445.367L13.925 445.367L13.925 446.367L14.925 446.367ZM14.925 480.577L14.925 481.577L15.925 481.577L15.925 480.577L14.925 480.577ZM1.99997 480.577L0.999974 480.577L0.999974 481.577L1.99997 481.577L1.99997 480.577ZM1.99998 429.757L1.99998 428.757L0.999976 428.757L0.999976 429.757L1.99998 429.757ZM81.805 429.757L82.805 429.757L82.805 428.757L81.805 428.757L81.805 429.757ZM81.805 480.577L81.805 481.577L82.805 481.577L82.805 480.577L81.805 480.577ZM68.88 480.577L67.88 480.577L67.88 481.577L68.88 481.577L68.88 480.577ZM68.88 445.367L48.365 445.367L48.365 447.367L68.88 447.367L68.88 445.367ZM47.365 446.367L47.365 472.987L49.365 472.987L49.365 446.367L47.365 446.367ZM48.365 471.987L35.88 471.987L35.88 473.987L48.365 473.987L48.365 471.987ZM36.88 472.987L36.88 446.367L34.88 446.367L34.88 472.987L36.88 472.987ZM35.88 445.367L14.925 445.367L14.925 447.367L35.88 447.367L35.88 445.367ZM13.925 446.367L13.925 480.577L15.925 480.577L15.925 446.367L13.925 446.367ZM14.925 479.577L1.99997 479.577L1.99997 481.577L14.925 481.577L14.925 479.577ZM2.99997 480.577L2.99998 429.757L0.999976 429.757L0.999974 480.577L2.99997 480.577ZM1.99998 430.757L81.805 430.757L81.805 428.757L1.99998 428.757L1.99998 430.757ZM80.805 429.757L80.805 480.577L82.805 480.577L82.805 429.757L80.805 429.757ZM81.805 479.577L68.88 479.577L68.88 481.577L81.805 481.577L81.805 479.577ZM69.88 480.577L69.88 446.367L67.88 446.367L67.88 480.577L69.88 480.577ZM32.305 540.552L31.305 540.552L31.305 541.966L32.6383 541.494L32.305 540.552ZM56.725 531.917L57.0584 532.859L57.0775 532.853L57.0964 532.845L56.725 531.917ZM61.235 530.267L60.9309 529.314L60.9218 529.317L60.9127 529.32L61.235 530.267ZM66.845 528.672L67.0917 529.641L67.0875 527.701L66.845 528.672ZM61.125 527.022L61.4412 526.073L61.429 526.069L61.125 527.022ZM56.615 525.427L56.9864 524.498L56.9672 524.49L56.9478 524.484L56.615 525.427ZM32.305 516.847L32.6378 515.904L31.305 515.433L31.305 516.847L32.305 516.847ZM1.99997 568.272L0.99997 568.272L0.99997 569.735L2.36338 569.203L1.99997 568.272ZM2.98997 551.937L2.20593 551.316L2.19177 551.334L2.17844 551.352L2.98997 551.937ZM5.62997 549.957L5.29644 549.014L5.27178 549.023L5.24762 549.033L5.62997 549.957ZM20.865 544.567L21.1985 545.509L21.865 545.273L21.865 544.567L20.865 544.567ZM20.865 512.777L21.865 512.777L21.865 512.07L21.1985 511.834L20.865 512.777ZM5.62997 507.387L5.25858 508.315L5.27737 508.323L5.29644 508.329L5.62997 507.387ZM3.09997 505.462L2.3191 506.086L2.32658 506.096L2.33427 506.105L3.09997 505.462ZM1.99997 489.072L2.36394 488.14L0.999974 487.607L0.999974 489.072L1.99997 489.072ZM81.805 520.257L82.805 520.257L82.805 519.574L82.1689 519.325L81.805 520.257ZM81.805 537.142L82.1684 538.073L82.805 537.825L82.805 537.142L81.805 537.142ZM32.6383 541.494L57.0584 532.859L56.3916 530.974L31.9716 539.609L32.6383 541.494ZM57.0964 532.845C58.3594 532.34 59.8456 531.796 61.5572 531.213L60.9127 529.32C59.1777 529.911 57.6573 530.467 56.3536 530.988L57.0964 532.845ZM61.539 531.219C63.2408 530.676 65.0915 530.15 67.0917 529.641L66.5983 527.702C64.5651 528.22 62.6758 528.757 60.9309 529.314L61.539 531.219ZM67.0875 527.701C65.0556 527.193 63.1738 526.65 61.4412 526.073L60.8087 527.97C62.5961 528.566 64.5277 529.123 66.6024 529.642L67.0875 527.701ZM61.429 526.069C59.7219 525.524 58.242 525 56.9864 524.498L56.2436 526.355C57.5546 526.879 59.0814 527.419 60.8209 527.974L61.429 526.069ZM56.9478 524.484L32.6378 515.904L31.9722 517.79L56.2822 526.37L56.9478 524.484ZM31.305 516.847L31.305 540.552L33.305 540.552L33.305 516.847L31.305 516.847ZM2.99997 568.272L2.99997 555.457L0.999971 555.457L0.99997 568.272L2.99997 568.272ZM2.99997 555.457C2.99997 554.18 3.29319 553.227 3.80151 552.521L2.17844 551.352C1.36675 552.48 0.999971 553.873 0.999971 555.457L2.99997 555.457ZM3.77402 552.557C4.36208 551.814 5.1024 551.257 6.01232 550.881L5.24762 549.033C4.03088 549.536 3.0112 550.299 2.20593 551.316L3.77402 552.557ZM5.9635 550.899L21.1985 545.509L20.5314 543.624L5.29644 549.014L5.9635 550.899ZM21.865 544.567L21.865 512.777L19.865 512.777L19.865 544.567L21.865 544.567ZM21.1985 511.834L5.9635 506.444L5.29644 508.329L20.5314 513.719L21.1985 511.834ZM6.00136 506.458C5.2669 506.164 4.55207 505.635 3.86568 504.818L2.33427 506.105C3.18788 507.121 4.15971 507.875 5.25858 508.315L6.00136 506.458ZM3.88084 504.837C3.31468 504.129 2.99997 503.207 2.99997 501.997L0.999973 501.997C0.999973 503.573 1.4186 504.961 2.3191 506.086L3.88084 504.837ZM2.99997 501.997L2.99997 489.072L0.999974 489.072L0.999973 501.997L2.99997 501.997ZM1.63601 490.003L81.441 521.188L82.1689 519.325L2.36394 488.14L1.63601 490.003ZM80.805 520.257L80.805 537.142L82.805 537.142L82.805 520.257L80.805 520.257ZM81.4416 536.21L1.63656 567.34L2.36338 569.203L82.1684 538.073L81.4416 536.21ZM81.805 649.523L81.805 650.523L82.805 650.523L82.805 649.523L81.805 649.523ZM1.99997 649.523L0.999966 649.523L0.999966 650.523L1.99997 650.523L1.99997 649.523ZM2.60497 637.753L1.71054 637.306L1.70296 637.321L1.6959 637.336L2.60497 637.753ZM4.80497 635.168L4.18707 634.382L4.17858 634.388L4.17023 634.395L4.80497 635.168ZM55.405 595.403L56.0229 596.189L58.655 594.121L55.3196 594.407L55.405 595.403ZM51.61 595.623L51.5806 594.623L51.5659 594.624L51.5513 594.625L51.61 595.623ZM1.99997 595.733L0.999969 595.733L0.999969 596.733L1.99997 596.733L1.99997 595.733ZM1.99997 581.158L1.99997 580.158L0.99997 580.158L0.999969 581.158L1.99997 581.158ZM81.805 581.158L82.805 581.158L82.805 580.158L81.805 580.158L81.805 581.158ZM81.695 591.608L80.7066 591.456L80.7004 591.496L80.6975 591.537L81.695 591.608ZM81.31 592.983L80.4321 592.504L80.4147 592.536L80.3996 592.569L81.31 592.983ZM80.54 594.138L81.2833 594.807L81.2833 594.807L80.54 594.138ZM79.22 595.348L79.8389 596.133L79.8447 596.129L79.22 595.348ZM28.4 635.388L27.7811 634.602L25.0619 636.745L28.5047 636.382L28.4 635.388ZM32.415 635.058L32.3595 634.059L32.3579 634.059L32.415 635.058ZM81.805 634.948L82.805 634.948L82.805 633.948L81.805 633.948L81.805 634.948ZM81.805 648.523L1.99997 648.523L1.99997 650.523L81.805 650.523L81.805 648.523ZM2.99997 649.523L2.99997 640.998L0.999967 640.998L0.999966 649.523L2.99997 649.523ZM2.99997 640.998C2.99997 639.814 3.18677 638.884 3.51403 638.17L1.6959 637.336C1.21649 638.382 0.999967 639.615 0.999967 640.998L2.99997 640.998ZM3.49939 638.2C3.85874 637.481 4.48558 636.724 5.43971 635.941L4.17023 634.395C3.07102 635.298 2.2312 636.264 1.71054 637.306L3.49939 638.2ZM5.42286 635.954L56.0229 596.189L54.7871 594.617L4.18707 634.382L5.42286 635.954ZM55.3196 594.407C54.0543 594.515 52.8079 594.587 51.5806 594.623L51.6394 596.622C52.9053 596.585 54.189 596.511 55.4904 596.399L55.3196 594.407ZM51.5513 594.625C50.3209 594.697 49.1857 594.733 48.145 594.733L48.145 596.733C49.2309 596.733 50.4057 596.695 51.6687 596.621L51.5513 594.625ZM48.145 594.733L1.99997 594.733L1.99997 596.733L48.145 596.733L48.145 594.733ZM2.99997 595.733L2.99997 581.158L0.999969 581.158L0.999969 595.733L2.99997 595.733ZM1.99997 582.158L81.805 582.158L81.805 580.158L1.99997 580.158L1.99997 582.158ZM80.805 581.158L80.805 589.848L82.805 589.848L82.805 581.158L80.805 581.158ZM80.805 589.848C80.805 590.514 80.7696 591.046 80.7066 591.456L82.6833 591.76C82.767 591.216 82.805 590.575 82.805 589.848L80.805 589.848ZM80.6975 591.537C80.6698 591.924 80.5757 592.241 80.4321 592.504L82.1879 593.462C82.4843 592.918 82.6468 592.318 82.6924 591.679L80.6975 591.537ZM80.3996 592.569C80.2631 592.869 80.0659 593.17 79.7967 593.469L81.2833 594.807C81.674 594.373 81.9902 593.903 82.2203 593.397L80.3996 592.569ZM79.7967 593.469C79.5149 593.782 79.1191 594.148 78.5953 594.567L79.8447 596.129C80.4208 595.668 80.9051 595.227 81.2833 594.807L79.7967 593.469ZM78.6011 594.562L27.7811 634.602L29.0188 636.173L79.8388 596.133L78.6011 594.562ZM28.5047 636.382C29.8835 636.237 31.2059 636.129 32.472 636.056L32.3579 634.059C31.0573 634.134 29.7031 634.245 28.2953 634.393L28.5047 636.382ZM32.4704 636.056C33.7742 635.984 35.0023 635.948 36.155 635.948L36.155 633.948C34.961 633.948 33.6957 633.985 32.3595 634.059L32.4704 636.056ZM36.155 635.948L81.805 635.948L81.805 633.948L36.155 633.948L36.155 635.948ZM80.805 634.948L80.805 649.523L82.805 649.523L82.805 634.948L80.805 634.948Z"
				  fill="white"/>
		</svg>
