<svg width="61" height="477" viewBox="0 0 61 477" fill="none" xmlns="http://www.w3.org/2000/svg">
<path d="M3.99999 42.0141L53 61.2641L53 41.1741L20.52 32.0041L53 22.7641L53 3.37414L3.99999 21.9941L3.99999 42.0141ZM39.91 67.1387L3.99999 67.1387L3.99999 83.9387L39.91 83.9387L39.91 67.1387ZM50.34 66.1587C45.37 66.1587 41.87 70.1487 41.87 75.4687C41.87 80.9987 44.67 84.9187 50.34 84.9187C55.38 84.9187 58.88 80.9287 58.88 75.4687C58.88 70.1487 55.38 66.1587 50.34 66.1587ZM24.93 125.648L40.19 125.648C40.68 124.318 40.75 123.548 40.75 121.868C40.75 116.478 37.46 112.838 34.17 111.228L39.91 111.228L39.91 94.4277L3.99999 94.4277L3.99999 111.228L15.34 111.228C23.88 111.228 25.7 115.498 25.7 120.188C25.7 122.358 25.49 123.478 24.93 125.648ZM3.99998 159.604L15.2 159.604C14.99 158.274 14.99 157.504 14.99 155.894C14.99 153.864 15.97 151.554 19.61 151.554L28.71 151.554L28.71 159.604L39.91 159.604L39.91 151.554L50.2 151.554L50.2 134.754L39.91 134.754L39.91 129.854L28.71 129.854L28.71 134.754L15.9 134.754C4.13999 134.754 3.15998 141.894 3.15998 149.594C3.15998 154.634 3.50998 157.294 3.99998 159.604ZM39.91 208.343L39.91 191.543L22.83 191.543C18.42 191.543 16.95 190.143 16.95 187.623C16.95 185.173 18.56 183.983 21.85 183.983L39.91 183.983L39.91 167.183L18.7 167.183C13.1 167.183 8.75998 167.813 5.88998 170.893C4.20998 172.783 3.15998 176.003 3.15998 179.643C3.15998 185.733 5.60998 189.863 9.45998 191.543L3.99998 191.543L3.99998 208.343L39.91 208.343ZM25.14 271.034L25.14 252.414C21.78 251.784 18.84 249.264 18.84 243.944C18.84 238.344 22.83 234.914 28.5 234.914C33.54 234.914 38.16 237.784 38.16 243.944C38.16 248.984 35.29 251.434 31.65 252.204L31.65 270.824C44.11 269.704 54.4 260.324 54.4 243.874C54.4 226.724 42.15 216.714 28.5 216.714C14.85 216.714 2.59998 226.724 2.59998 244.084C2.59998 260.604 13.03 269.704 25.14 271.034ZM19.05 309.146L19.05 297.526L53 297.526L53 279.676L3.99998 279.676L3.99998 309.146L19.05 309.146ZM40.19 336.095L40.19 351.425L53 351.425L53 318.245L3.99998 318.245L3.99998 351.425L16.81 351.425L16.81 336.095L22.27 336.095L22.27 351.425L34.38 351.425L34.38 336.095L40.19 336.095ZM3.99997 396.377L3.99997 416.467L53 397.217L53 377.197L3.99998 358.577L3.99997 377.967L9.38997 379.437L9.38997 394.907L3.99997 396.377ZM37.67 387.207L21.64 391.547L21.64 382.797L37.67 387.207ZM26.89 456.291L53 442.011L53 424.161L3.99997 424.161L3.99997 442.011L28.71 442.011L3.99997 456.291L3.99997 474.141L53 474.141L53 456.291L26.89 456.291Z" fill="white"/>
<path d="M3.99999 42.0141L1.99999 42.0141L1.99999 43.3772L3.26868 43.8756L3.99999 42.0141ZM53 61.2641L52.2687 63.1256L55 64.1987L55 61.2641L53 61.2641ZM53 41.1741L55 41.1741L55 39.6606L53.5434 39.2494L53 41.1741ZM20.52 32.0041L19.9727 30.0805L13.185 32.0115L19.9766 33.9289L20.52 32.0041ZM53 22.7641L53.5472 24.6878L55 24.2745L55 22.7641L53 22.7641ZM53 3.37415L55 3.37415L55 0.474609L52.2896 1.50458L53 3.37415ZM3.99999 21.9941L3.28956 20.1246L1.99999 20.6146L1.99999 21.9941L3.99999 21.9941ZM3.26868 43.8756L52.2687 63.1256L53.7313 59.4026L4.73129 40.1526L3.26868 43.8756ZM55 61.2641L55 41.1741L51 41.1741L51 61.2641L55 61.2641ZM53.5434 39.2494L21.0634 30.0794L19.9766 33.9289L52.4566 43.0989L53.5434 39.2494ZM21.0672 33.9278L53.5472 24.6878L52.4527 20.8405L19.9727 30.0805L21.0672 33.9278ZM55 22.7641L55 3.37415L51 3.37415L51 22.7641L55 22.7641ZM52.2896 1.50458L3.28956 20.1246L4.71042 23.8637L53.7104 5.24371L52.2896 1.50458ZM1.99999 21.9941L1.99999 42.0141L5.99999 42.0141L5.99999 21.9941L1.99999 21.9941ZM39.91 67.1387L41.91 67.1387L41.91 65.1387L39.91 65.1387L39.91 67.1387ZM3.99999 67.1387L3.99999 65.1387L1.99999 65.1387L1.99999 67.1387L3.99999 67.1387ZM3.99999 83.9387L1.99999 83.9387L1.99999 85.9387L3.99999 85.9387L3.99999 83.9387ZM39.91 83.9387L39.91 85.9387L41.91 85.9387L41.91 83.9387L39.91 83.9387ZM39.91 65.1387L3.99999 65.1387L3.99999 69.1387L39.91 69.1387L39.91 65.1387ZM1.99999 67.1387L1.99999 83.9387L5.99999 83.9387L5.99999 67.1387L1.99999 67.1387ZM3.99999 85.9387L39.91 85.9387L39.91 81.9387L3.99999 81.9387L3.99999 85.9387ZM41.91 83.9387L41.91 67.1387L37.91 67.1387L37.91 83.9387L41.91 83.9387ZM50.34 64.1587C44.0724 64.1587 39.87 69.2475 39.87 75.4687L43.87 75.4687C43.87 71.0498 46.6676 68.1587 50.34 68.1587L50.34 64.1587ZM39.87 75.4687C39.87 78.5451 40.6473 81.4184 42.4495 83.5564C44.2943 85.745 47.0082 86.9187 50.34 86.9187L50.34 82.9187C48.0018 82.9187 46.4807 82.1324 45.5079 80.9784C44.4927 79.774 43.87 77.9222 43.87 75.4687L39.87 75.4687ZM50.34 86.9187C56.6858 86.9187 60.88 81.8206 60.88 75.4687L56.88 75.4687C56.88 80.0367 54.0742 82.9187 50.34 82.9187L50.34 86.9187ZM60.88 75.4687C60.88 69.2361 56.6672 64.1587 50.34 64.1587L50.34 68.1587C54.0928 68.1587 56.88 71.0613 56.88 75.4687L60.88 75.4687ZM24.93 125.648L22.9934 125.148L22.3483 127.648L24.93 127.648L24.93 125.648ZM40.19 125.648L40.19 127.648L41.5846 127.648L42.0667 126.339L40.19 125.648ZM34.17 111.228L34.17 109.228L33.2909 113.024L34.17 111.228ZM39.91 111.228L39.91 113.228L41.91 113.228L41.91 111.228L39.91 111.228ZM39.91 94.4277L41.91 94.4277L41.91 92.4277L39.91 92.4277L39.91 94.4277ZM3.99999 94.4277L3.99999 92.4277L1.99999 92.4277L1.99999 94.4277L3.99999 94.4277ZM3.99999 111.228L1.99999 111.228L1.99999 113.228L3.99999 113.228L3.99999 111.228ZM24.93 127.648L40.19 127.648L40.19 123.648L24.93 123.648L24.93 127.648ZM42.0667 126.339C42.6707 124.7 42.75 123.667 42.75 121.868L38.75 121.868C38.75 123.429 38.6893 123.936 38.3133 124.956L42.0667 126.339ZM42.75 121.868C42.75 115.572 38.8876 111.31 35.0491 109.431L33.2909 113.024C36.0323 114.366 38.75 117.383 38.75 121.868L42.75 121.868ZM34.17 113.228L39.91 113.228L39.91 109.228L34.17 109.228L34.17 113.228ZM41.91 111.228L41.91 94.4277L37.91 94.4277L37.91 111.228L41.91 111.228ZM39.91 92.4277L3.99999 92.4277L3.99999 96.4277L39.91 96.4277L39.91 92.4277ZM1.99999 94.4277L1.99999 111.228L5.99999 111.228L5.99999 94.4277L1.99999 94.4277ZM3.99999 113.228L15.34 113.228L15.34 109.228L3.99999 109.228L3.99999 113.228ZM15.34 113.228C19.3078 113.228 21.2519 114.218 22.2511 115.304C23.2756 116.416 23.7 118.048 23.7 120.188L27.7 120.188C27.7 117.637 27.2144 114.789 25.1939 112.594C23.1481 110.372 19.9122 109.228 15.34 109.228L15.34 113.228ZM23.7 120.188C23.7 122.136 23.527 123.08 22.9934 125.148L26.8665 126.147C27.4529 123.875 27.7 122.579 27.7 120.188L23.7 120.188ZM3.99998 159.604L2.04352 160.019L2.37973 161.604L3.99998 161.604L3.99998 159.604ZM15.2 159.604L15.2 161.604L17.5406 161.604L17.1755 159.292L15.2 159.604ZM28.71 151.554L30.71 151.554L30.71 149.554L28.71 149.554L28.71 151.554ZM28.71 159.604L26.71 159.604L26.71 161.604L28.71 161.604L28.71 159.604ZM39.91 159.604L39.91 161.604L41.91 161.604L41.91 159.604L39.91 159.604ZM39.91 151.554L39.91 149.554L37.91 149.554L37.91 151.554L39.91 151.554ZM50.2 151.554L50.2 153.554L52.2 153.554L52.2 151.554L50.2 151.554ZM50.2 134.754L52.2 134.754L52.2 132.754L50.2 132.754L50.2 134.754ZM39.91 134.754L37.91 134.754L37.91 136.754L39.91 136.754L39.91 134.754ZM39.91 129.854L41.91 129.854L41.91 127.854L39.91 127.854L39.91 129.854ZM28.71 129.854L28.71 127.854L26.71 127.854L26.71 129.854L28.71 129.854ZM28.71 134.754L28.71 136.754L30.71 136.754L30.71 134.754L28.71 134.754ZM3.99998 161.604L15.2 161.604L15.2 157.604L3.99998 157.604L3.99998 161.604ZM17.1755 159.292C16.9923 158.132 16.99 157.501 16.99 155.894L12.99 155.894C12.99 157.508 12.9877 158.417 13.2245 159.916L17.1755 159.292ZM16.99 155.894C16.99 155.16 17.172 154.599 17.4648 154.251C17.7032 153.968 18.2403 153.554 19.61 153.554L19.61 149.554C17.3397 149.554 15.5668 150.295 14.4052 151.675C13.298 152.99 12.99 154.598 12.99 155.894L16.99 155.894ZM19.61 153.554L28.71 153.554L28.71 149.554L19.61 149.554L19.61 153.554ZM26.71 151.554L26.71 159.604L30.71 159.604L30.71 151.554L26.71 151.554ZM28.71 161.604L39.91 161.604L39.91 157.604L28.71 157.604L28.71 161.604ZM41.91 159.604L41.91 151.554L37.91 151.554L37.91 159.604L41.91 159.604ZM39.91 153.554L50.2 153.554L50.2 149.554L39.91 149.554L39.91 153.554ZM52.2 151.554L52.2 134.754L48.2 134.754L48.2 151.554L52.2 151.554ZM50.2 132.754L39.91 132.754L39.91 136.754L50.2 136.754L50.2 132.754ZM41.91 134.754L41.91 129.854L37.91 129.854L37.91 134.754L41.91 134.754ZM39.91 127.854L28.71 127.854L28.71 131.854L39.91 131.854L39.91 127.854ZM26.71 129.854L26.71 134.754L30.71 134.754L30.71 129.854L26.71 129.854ZM28.71 132.754L15.9 132.754L15.9 136.754L28.71 136.754L28.71 132.754ZM15.9 132.754C9.59668 132.754 5.6256 134.7 3.42338 138.228C1.36864 141.52 1.15998 145.783 1.15998 149.594L5.15998 149.594C5.15998 145.705 5.44133 142.549 6.81659 140.346C8.04437 138.379 10.4433 136.754 15.9 136.754L15.9 132.754ZM1.15998 149.594C1.15998 154.743 1.51884 157.546 2.04352 160.019L5.95645 159.189C5.50112 157.043 5.15998 154.525 5.15998 149.594L1.15998 149.594ZM39.91 208.343L39.91 210.343L41.91 210.343L41.91 208.343L39.91 208.343ZM39.91 191.543L41.91 191.543L41.91 189.543L39.91 189.543L39.91 191.543ZM39.91 183.983L39.91 185.983L41.91 185.983L41.91 183.983L39.91 183.983ZM39.91 167.183L41.91 167.183L41.91 165.183L39.91 165.183L39.91 167.183ZM5.88998 170.893L4.42677 169.529L4.41076 169.547L4.39516 169.564L5.88998 170.893ZM9.45998 191.543L9.45998 193.543L10.2599 189.71L9.45998 191.543ZM3.99998 191.543L3.99998 189.543L1.99998 189.543L1.99998 191.543L3.99998 191.543ZM3.99998 208.343L1.99998 208.343L1.99998 210.343L3.99998 210.343L3.99998 208.343ZM41.91 208.343L41.91 191.543L37.91 191.543L37.91 208.343L41.91 208.343ZM39.91 189.543L22.83 189.543L22.83 193.543L39.91 193.543L39.91 189.543ZM22.83 189.543C20.7526 189.543 19.8078 189.196 19.4089 188.908C19.1672 188.733 18.95 188.464 18.95 187.623L14.95 187.623C14.95 189.302 15.4678 190.993 17.0636 192.148C18.5022 193.189 20.4974 193.543 22.83 193.543L22.83 189.543ZM18.95 187.623C18.95 186.879 19.1637 186.634 19.3579 186.49C19.6692 186.259 20.3838 185.983 21.85 185.983L21.85 181.983C20.0262 181.983 18.2908 182.301 16.9745 183.278C15.5413 184.341 14.95 185.917 14.95 187.623L18.95 187.623ZM21.85 185.983L39.91 185.983L39.91 181.983L21.85 181.983L21.85 185.983ZM41.91 183.983L41.91 167.183L37.91 167.183L37.91 183.983L41.91 183.983ZM39.91 165.183L18.7 165.183L18.7 169.183L39.91 169.183L39.91 165.183ZM18.7 165.183C13.1035 165.183 7.93576 165.764 4.42677 169.529L7.3532 172.256C9.58421 169.862 13.0964 169.183 18.7 169.183L18.7 165.183ZM4.39516 169.564C2.28915 171.933 1.15998 175.689 1.15998 179.643L5.15998 179.643C5.15998 176.317 6.13082 173.632 7.3848 172.222L4.39516 169.564ZM1.15998 179.643C1.15998 186.258 3.86195 191.282 8.66009 193.376L10.2599 189.71C7.35801 188.444 5.15998 185.208 5.15998 179.643L1.15998 179.643ZM9.45998 189.543L3.99998 189.543L3.99998 193.543L9.45998 193.543L9.45998 189.543ZM1.99998 191.543L1.99998 208.343L5.99998 208.343L5.99998 191.543L1.99998 191.543ZM3.99998 210.343L39.91 210.343L39.91 206.343L3.99998 206.343L3.99998 210.343ZM25.14 271.034L24.9216 273.022L27.14 273.266L27.14 271.034L25.14 271.034ZM25.14 252.414L27.14 252.414L27.14 250.755L25.5086 250.449L25.14 252.414ZM31.65 252.204L31.2361 250.248L29.65 250.583L29.65 252.204L31.65 252.204ZM31.65 270.824L29.65 270.824L29.65 273.012L31.829 272.816L31.65 270.824ZM27.14 271.034L27.14 252.414L23.14 252.414L23.14 271.034L27.14 271.034ZM25.5086 250.449C24.1979 250.203 23.0673 249.61 22.2608 248.651C21.4627 247.702 20.84 246.225 20.84 243.944L16.84 243.944C16.84 246.984 17.6873 249.427 19.1991 251.225C20.7027 253.014 22.722 253.996 24.7714 254.38L25.5086 250.449ZM20.84 243.944C20.84 241.646 21.6436 239.946 22.8921 238.807C24.1613 237.648 26.0626 236.914 28.5 236.914L28.5 232.914C25.2674 232.914 22.3387 233.896 20.1954 235.852C18.0314 237.828 16.84 240.643 16.84 243.944L20.84 243.944ZM28.5 236.914C30.6647 236.914 32.592 237.533 33.9396 238.656C35.2364 239.737 36.16 241.415 36.16 243.944L40.16 243.944C40.16 240.314 38.7735 237.477 36.5004 235.583C34.278 233.731 31.3753 232.914 28.5 232.914L28.5 236.914ZM36.16 243.944C36.16 246.066 35.5657 247.444 34.7654 248.358C33.9471 249.292 32.749 249.928 31.2361 250.248L32.0639 254.161C34.191 253.711 36.2478 252.737 37.7745 250.993C39.3192 249.23 40.16 246.863 40.16 243.944L36.16 243.944ZM29.65 252.204L29.65 270.824L33.65 270.824L33.65 252.204L29.65 252.204ZM31.829 272.816C38.5095 272.216 44.6783 269.391 49.1771 264.444C53.6838 259.488 56.4 252.531 56.4 243.874L52.4 243.874C52.4 251.668 49.9711 257.626 46.2179 261.753C42.4566 265.888 37.2505 268.313 31.4709 268.832L31.829 272.816ZM56.4 243.874C56.4 225.571 43.2052 214.714 28.5 214.714L28.5 218.714C41.0948 218.714 52.4 227.878 52.4 243.874L56.4 243.874ZM28.5 214.714C13.7841 214.714 0.59998 225.582 0.599979 244.084L4.59998 244.084C4.59998 227.867 15.9159 218.714 28.5 218.714L28.5 214.714ZM0.599979 244.084C0.599978 252.784 3.35612 259.689 7.85288 264.605C12.3369 269.508 18.4381 272.31 24.9216 273.022L25.3583 269.046C19.7318 268.428 14.563 266.015 10.8046 261.906C7.05884 257.81 4.59998 251.905 4.59998 244.084L0.599979 244.084ZM19.05 309.146L19.05 311.146L21.05 311.146L21.05 309.146L19.05 309.146ZM19.05 297.526L19.05 295.526L17.05 295.526L17.05 297.526L19.05 297.526ZM53 297.526L53 299.526L55 299.526L55 297.526L53 297.526ZM53 279.676L55 279.676L55 277.676L53 277.676L53 279.676ZM3.99998 279.676L3.99998 277.676L1.99998 277.676L1.99998 279.676L3.99998 279.676ZM3.99998 309.146L1.99998 309.146L1.99998 311.146L3.99998 311.146L3.99998 309.146ZM21.05 309.146L21.05 297.526L17.05 297.526L17.05 309.146L21.05 309.146ZM19.05 299.526L53 299.526L53 295.526L19.05 295.526L19.05 299.526ZM55 297.526L55 279.676L51 279.676L51 297.526L55 297.526ZM53 277.676L3.99998 277.676L3.99998 281.676L53 281.676L53 277.676ZM1.99998 279.676L1.99998 309.146L5.99998 309.146L5.99998 279.676L1.99998 279.676ZM3.99998 311.146L19.05 311.146L19.05 307.146L3.99998 307.146L3.99998 311.146ZM40.19 336.095L42.19 336.095L42.19 334.095L40.19 334.095L40.19 336.095ZM40.19 351.425L38.19 351.425L38.19 353.425L40.19 353.425L40.19 351.425ZM53 351.425L53 353.425L55 353.425L55 351.425L53 351.425ZM53 318.245L55 318.245L55 316.245L53 316.245L53 318.245ZM3.99998 318.245L3.99998 316.245L1.99998 316.245L1.99998 318.245L3.99998 318.245ZM3.99998 351.425L1.99998 351.425L1.99998 353.425L3.99998 353.425L3.99998 351.425ZM16.81 351.425L16.81 353.425L18.81 353.425L18.81 351.425L16.81 351.425ZM16.81 336.095L16.81 334.095L14.81 334.095L14.81 336.095L16.81 336.095ZM22.27 336.095L24.27 336.095L24.27 334.095L22.27 334.095L22.27 336.095ZM22.27 351.425L20.27 351.425L20.27 353.425L22.27 353.425L22.27 351.425ZM34.38 351.425L34.38 353.425L36.38 353.425L36.38 351.425L34.38 351.425ZM34.38 336.095L34.38 334.095L32.38 334.095L32.38 336.095L34.38 336.095ZM38.19 336.095L38.19 351.425L42.19 351.425L42.19 336.095L38.19 336.095ZM40.19 353.425L53 353.425L53 349.425L40.19 349.425L40.19 353.425ZM55 351.425L55 318.245L51 318.245L51 351.425L55 351.425ZM53 316.245L3.99998 316.245L3.99998 320.245L53 320.245L53 316.245ZM1.99998 318.245L1.99998 351.425L5.99998 351.425L5.99998 318.245L1.99998 318.245ZM3.99998 353.425L16.81 353.425L16.81 349.425L3.99998 349.425L3.99998 353.425ZM18.81 351.425L18.81 336.095L14.81 336.095L14.81 351.425L18.81 351.425ZM16.81 338.095L22.27 338.095L22.27 334.095L16.81 334.095L16.81 338.095ZM20.27 336.095L20.27 351.425L24.27 351.425L24.27 336.095L20.27 336.095ZM22.27 353.425L34.38 353.425L34.38 349.425L22.27 349.425L22.27 353.425ZM36.38 351.425L36.38 336.095L32.38 336.095L32.38 351.425L36.38 351.425ZM34.38 338.095L40.19 338.095L40.19 334.095L34.38 334.095L34.38 338.095ZM3.99997 396.377L3.47374 394.447L1.99997 394.849L1.99997 396.377L3.99997 396.377ZM3.99997 416.467L1.99997 416.467L1.99997 419.401L4.73128 418.328L3.99997 416.467ZM53 397.217L53.7313 399.078L55 398.58L55 397.217L53 397.217ZM53 377.197L55 377.197L55 375.817L53.7104 375.327L53 377.197ZM3.99998 358.577L4.71041 356.707L1.99998 355.677L1.99998 358.577L3.99998 358.577ZM3.99997 377.967L1.99997 377.967L1.99997 379.494L3.47374 379.896L3.99997 377.967ZM9.38997 379.437L11.39 379.437L11.39 377.909L9.91621 377.507L9.38997 379.437ZM9.38997 394.907L9.91621 396.836L11.39 396.434L11.39 394.907L9.38997 394.907ZM37.67 387.207L38.1926 389.137L45.266 387.222L38.2005 385.278L37.67 387.207ZM21.64 391.547L19.64 391.547L19.64 394.16L22.1626 393.477L21.64 391.547ZM21.64 382.797L22.1705 380.868L19.64 380.172L19.64 382.797L21.64 382.797ZM1.99997 396.377L1.99997 416.467L5.99997 416.467L5.99997 396.377L1.99997 396.377ZM4.73128 418.328L53.7313 399.078L52.2687 395.355L3.26867 414.605L4.73128 418.328ZM55 397.217L55 377.197L51 377.197L51 397.217L55 397.217ZM53.7104 375.327L4.71041 356.707L3.28954 360.446L52.2895 379.066L53.7104 375.327ZM1.99998 358.577L1.99997 377.967L5.99997 377.967L5.99998 358.577L1.99998 358.577ZM3.47374 379.896L8.86374 381.366L9.91621 377.507L4.52621 376.037L3.47374 379.896ZM7.38997 379.437L7.38997 394.907L11.39 394.907L11.39 379.437L7.38997 379.437ZM8.86374 392.977L3.47374 394.447L4.52621 398.306L9.91621 396.836L8.86374 392.977ZM37.1473 385.276L21.1173 389.616L22.1626 393.477L38.1926 389.137L37.1473 385.276ZM23.64 391.547L23.64 382.797L19.64 382.797L19.64 391.547L23.64 391.547ZM21.1095 384.725L37.1395 389.135L38.2005 385.278L22.1705 380.868L21.1095 384.725ZM26.89 456.291L25.9303 454.536L26.89 458.291L26.89 456.291ZM53 442.011L53.9597 443.765L55 443.196L55 442.011L53 442.011ZM53 424.161L55 424.161L55 422.161L53 422.161L53 424.161ZM3.99997 424.161L3.99997 422.161L1.99997 422.161L1.99997 424.161L3.99997 424.161ZM3.99997 442.011L1.99997 442.011L1.99997 444.011L3.99997 444.011L3.99997 442.011ZM28.71 442.011L29.7107 443.742L36.1679 440.011L28.71 440.011L28.71 442.011ZM3.99997 456.291L2.99925 454.559L1.99997 455.136L1.99997 456.291L3.99997 456.291ZM3.99997 474.141L1.99997 474.141L1.99997 476.141L3.99997 476.141L3.99997 474.141ZM53 474.141L53 476.141L55 476.141L55 474.141L53 474.141ZM53 456.291L55 456.291L55 454.291L53 454.291L53 456.291ZM27.8497 458.045L53.9597 443.765L52.0403 440.256L25.9303 454.536L27.8497 458.045ZM55 442.011L55 424.161L51 424.161L51 442.011L55 442.011ZM53 422.161L3.99997 422.161L3.99997 426.161L53 426.161L53 422.161ZM1.99997 424.161L1.99997 442.011L5.99997 442.011L5.99997 424.161L1.99997 424.161ZM3.99997 444.011L28.71 444.011L28.71 440.011L3.99997 440.011L3.99997 444.011ZM27.7093 440.279L2.99925 454.559L5.00069 458.022L29.7107 443.742L27.7093 440.279ZM1.99997 456.291L1.99997 474.141L5.99997 474.141L5.99997 456.291L1.99997 456.291ZM3.99997 476.141L53 476.141L53 472.141L3.99997 472.141L3.99997 476.141ZM55 474.141L55 456.291L51 456.291L51 474.141L55 474.141ZM53 454.291L26.89 454.291L26.89 458.291L53 458.291L53 454.291Z" fill="#DEF0FB"/>
</svg>
