<svg width="59" height="475" viewBox="0 0 59 475" fill="none" xmlns="http://www.w3.org/2000/svg">
<path d="M2.99999 41.0141L52 60.2641L52 40.1741L19.52 31.0041L52 21.7641L52 2.37414L2.99999 20.9941L2.99999 41.0141ZM38.91 66.1387L2.99999 66.1387L2.99999 82.9387L38.91 82.9387L38.91 66.1387ZM49.34 65.1587C44.37 65.1587 40.87 69.1487 40.87 74.4687C40.87 79.9987 43.67 83.9187 49.34 83.9187C54.38 83.9187 57.88 79.9287 57.88 74.4687C57.88 69.1487 54.38 65.1587 49.34 65.1587ZM23.93 124.648L39.19 124.648C39.68 123.318 39.75 122.548 39.75 120.868C39.75 115.478 36.46 111.838 33.17 110.228L38.91 110.228L38.91 93.4277L2.99999 93.4277L2.99999 110.228L14.34 110.228C22.88 110.228 24.7 114.498 24.7 119.188C24.7 121.358 24.49 122.478 23.93 124.648ZM2.99998 158.604L14.2 158.604C13.99 157.274 13.99 156.504 13.99 154.894C13.99 152.864 14.97 150.554 18.61 150.554L27.71 150.554L27.71 158.604L38.91 158.604L38.91 150.554L49.2 150.554L49.2 133.754L38.91 133.754L38.91 128.854L27.71 128.854L27.71 133.754L14.9 133.754C3.13999 133.754 2.15998 140.894 2.15998 148.594C2.15998 153.634 2.50998 156.294 2.99998 158.604ZM38.91 207.343L38.91 190.543L21.83 190.543C17.42 190.543 15.95 189.143 15.95 186.623C15.95 184.173 17.56 182.983 20.85 182.983L38.91 182.983L38.91 166.183L17.7 166.183C12.1 166.183 7.75998 166.813 4.88998 169.893C3.20998 171.783 2.15998 175.003 2.15998 178.643C2.15998 184.733 4.60998 188.863 8.45998 190.543L2.99998 190.543L2.99998 207.343L38.91 207.343ZM24.14 270.034L24.14 251.414C20.78 250.784 17.84 248.264 17.84 242.944C17.84 237.344 21.83 233.914 27.5 233.914C32.54 233.914 37.16 236.784 37.16 242.944C37.16 247.984 34.29 250.434 30.65 251.204L30.65 269.824C43.11 268.704 53.4 259.324 53.4 242.874C53.4 225.724 41.15 215.714 27.5 215.714C13.85 215.714 1.59998 225.724 1.59998 243.084C1.59998 259.604 12.03 268.704 24.14 270.034ZM18.05 308.146L18.05 296.526L52 296.526L52 278.676L2.99998 278.676L2.99998 308.146L18.05 308.146ZM39.19 335.095L39.19 350.425L52 350.425L52 317.245L2.99998 317.245L2.99998 350.425L15.81 350.425L15.81 335.095L21.27 335.095L21.27 350.425L33.38 350.425L33.38 335.095L39.19 335.095ZM2.99997 395.377L2.99997 415.467L52 396.217L52 376.197L2.99998 357.577L2.99997 376.967L8.38997 378.437L8.38997 393.907L2.99997 395.377ZM36.67 386.207L20.64 390.547L20.64 381.797L36.67 386.207ZM25.89 455.291L52 441.011L52 423.161L2.99997 423.161L2.99997 441.011L27.71 441.011L2.99997 455.291L2.99997 473.141L52 473.141L52 455.291L25.89 455.291Z" fill="white"/>
<path d="M2.99999 41.0141L1.99999 41.0141L1.99999 41.6957L2.63434 41.9449L2.99999 41.0141ZM52 60.2641L51.6343 61.1949L53 61.7314L53 60.2641L52 60.2641ZM52 40.1741L53 40.1741L53 39.4174L52.2717 39.2118L52 40.1741ZM19.52 31.0041L19.2464 30.0423L15.8525 31.0078L19.2483 31.9665L19.52 31.0041ZM52 21.7641L52.2736 22.726L53 22.5193L53 21.7641L52 21.7641ZM52 2.37415L53 2.37415L53 0.924377L51.6448 1.43936L52 2.37415ZM2.99999 20.9941L2.64477 20.0594L1.99999 20.3044L1.99999 20.9941L2.99999 20.9941ZM2.63434 41.9449L51.6343 61.1949L52.3656 59.3334L3.36564 40.0834L2.63434 41.9449ZM53 60.2641L53 40.1741L51 40.1741L51 60.2641L53 60.2641ZM52.2717 39.2118L19.7917 30.0418L19.2483 31.9665L51.7283 41.1365L52.2717 39.2118ZM19.7936 31.966L52.2736 22.726L51.7264 20.8023L19.2464 30.0423L19.7936 31.966ZM53 21.7641L53 2.37415L51 2.37415L51 21.7641L53 21.7641ZM51.6448 1.43936L2.64477 20.0594L3.35521 21.9289L52.3552 3.30893L51.6448 1.43936ZM1.99999 20.9941L1.99999 41.0141L3.99999 41.0141L3.99999 20.9941L1.99999 20.9941ZM38.91 66.1387L39.91 66.1387L39.91 65.1387L38.91 65.1387L38.91 66.1387ZM2.99999 66.1387L2.99999 65.1387L1.99999 65.1387L1.99999 66.1387L2.99999 66.1387ZM2.99999 82.9387L1.99999 82.9387L1.99999 83.9387L2.99999 83.9387L2.99999 82.9387ZM38.91 82.9387L38.91 83.9387L39.91 83.9387L39.91 82.9387L38.91 82.9387ZM38.91 65.1387L2.99999 65.1387L2.99999 67.1387L38.91 67.1387L38.91 65.1387ZM1.99999 66.1387L1.99999 82.9387L3.99999 82.9387L3.99999 66.1387L1.99999 66.1387ZM2.99999 83.9387L38.91 83.9387L38.91 81.9387L2.99999 81.9387L2.99999 83.9387ZM39.91 82.9387L39.91 66.1387L37.91 66.1387L37.91 82.9387L39.91 82.9387ZM49.34 64.1587C43.7212 64.1587 39.87 68.6981 39.87 74.4687L41.87 74.4687C41.87 69.5992 45.0188 66.1587 49.34 66.1587L49.34 64.1587ZM39.87 74.4687C39.87 77.3894 40.6087 80.0073 42.2141 81.9119C43.8409 83.8418 46.2566 84.9187 49.34 84.9187L49.34 82.9187C46.7534 82.9187 44.9341 82.0355 43.7433 80.6229C42.5313 79.1851 41.87 77.078 41.87 74.4687L39.87 74.4687ZM49.34 84.9187C55.0329 84.9187 58.88 80.3747 58.88 74.4687L56.88 74.4687C56.88 79.4827 53.7271 82.9187 49.34 82.9187L49.34 84.9187ZM58.88 74.4687C58.88 68.6924 55.0236 64.1587 49.34 64.1587L49.34 66.1587C53.7364 66.1587 56.88 69.605 56.88 74.4687L58.88 74.4687ZM23.93 124.648L22.9617 124.398L22.6392 125.648L23.93 125.648L23.93 124.648ZM39.19 124.648L39.19 125.648L39.8873 125.648L40.1283 124.993L39.19 124.648ZM33.17 110.228L33.17 109.228L32.7304 111.126L33.17 110.228ZM38.91 110.228L38.91 111.228L39.91 111.228L39.91 110.228L38.91 110.228ZM38.91 93.4277L39.91 93.4277L39.91 92.4277L38.91 92.4277L38.91 93.4277ZM2.99999 93.4277L2.99999 92.4277L1.99999 92.4277L1.99999 93.4277L2.99999 93.4277ZM2.99999 110.228L1.99999 110.228L1.99999 111.228L2.99999 111.228L2.99999 110.228ZM23.93 125.648L39.19 125.648L39.19 123.648L23.93 123.648L23.93 125.648ZM40.1283 124.993C40.6753 123.509 40.75 122.607 40.75 120.868L38.75 120.868C38.75 122.488 38.6846 123.127 38.2516 124.302L40.1283 124.993ZM40.75 120.868C40.75 115.025 37.1738 111.074 33.6095 109.33L32.7304 111.126C35.7462 112.602 38.75 115.931 38.75 120.868L40.75 120.868ZM33.17 111.228L38.91 111.228L38.91 109.228L33.17 109.228L33.17 111.228ZM39.91 110.228L39.91 93.4277L37.91 93.4277L37.91 110.228L39.91 110.228ZM38.91 92.4277L2.99999 92.4277L2.99999 94.4277L38.91 94.4277L38.91 92.4277ZM1.99999 93.4277L1.99999 110.228L3.99999 110.228L3.99999 93.4277L1.99999 93.4277ZM2.99999 111.228L14.34 111.228L14.34 109.228L2.99999 109.228L2.99999 111.228ZM14.34 111.228C18.4589 111.228 20.7259 112.257 21.9868 113.626C23.2603 115.01 23.7 116.945 23.7 119.188L25.7 119.188C25.7 116.74 25.2297 114.196 23.4582 112.272C21.674 110.334 18.7611 109.228 14.34 109.228L14.34 111.228ZM23.7 119.188C23.7 121.247 23.5085 122.279 22.9617 124.398L24.8983 124.898C25.4715 122.676 25.7 121.469 25.7 119.188L23.7 119.188ZM2.99998 158.604L2.02175 158.812L2.18986 159.604L2.99998 159.604L2.99998 158.604ZM14.2 158.604L14.2 159.604L15.3703 159.604L15.1877 158.448L14.2 158.604ZM27.71 150.554L28.71 150.554L28.71 149.554L27.71 149.554L27.71 150.554ZM27.71 158.604L26.71 158.604L26.71 159.604L27.71 159.604L27.71 158.604ZM38.91 158.604L38.91 159.604L39.91 159.604L39.91 158.604L38.91 158.604ZM38.91 150.554L38.91 149.554L37.91 149.554L37.91 150.554L38.91 150.554ZM49.2 150.554L49.2 151.554L50.2 151.554L50.2 150.554L49.2 150.554ZM49.2 133.754L50.2 133.754L50.2 132.754L49.2 132.754L49.2 133.754ZM38.91 133.754L37.91 133.754L37.91 134.754L38.91 134.754L38.91 133.754ZM38.91 128.854L39.91 128.854L39.91 127.854L38.91 127.854L38.91 128.854ZM27.71 128.854L27.71 127.854L26.71 127.854L26.71 128.854L27.71 128.854ZM27.71 133.754L27.71 134.754L28.71 134.754L28.71 133.754L27.71 133.754ZM2.99998 159.604L14.2 159.604L14.2 157.604L2.99998 157.604L2.99998 159.604ZM15.1877 158.448C14.9911 157.203 14.99 156.503 14.99 154.894L12.99 154.894C12.99 156.506 12.9888 157.345 13.2122 158.76L15.1877 158.448ZM14.99 154.894C14.99 154.02 15.2035 153.197 15.6999 152.607C16.1691 152.05 17.0151 151.554 18.61 151.554L18.61 149.554C16.5648 149.554 15.1009 150.214 14.1701 151.319C13.2665 152.392 12.99 153.739 12.99 154.894L14.99 154.894ZM18.61 151.554L27.71 151.554L27.71 149.554L18.61 149.554L18.61 151.554ZM26.71 150.554L26.71 158.604L28.71 158.604L28.71 150.554L26.71 150.554ZM27.71 159.604L38.91 159.604L38.91 157.604L27.71 157.604L27.71 159.604ZM39.91 158.604L39.91 150.554L37.91 150.554L37.91 158.604L39.91 158.604ZM38.91 151.554L49.2 151.554L49.2 149.554L38.91 149.554L38.91 151.554ZM50.2 150.554L50.2 133.754L48.2 133.754L48.2 150.554L50.2 150.554ZM49.2 132.754L38.91 132.754L38.91 134.754L49.2 134.754L49.2 132.754ZM39.91 133.754L39.91 128.854L37.91 128.854L37.91 133.754L39.91 133.754ZM38.91 127.854L27.71 127.854L27.71 129.854L38.91 129.854L38.91 127.854ZM26.71 128.854L26.71 133.754L28.71 133.754L28.71 128.854L26.71 128.854ZM27.71 132.754L14.9 132.754L14.9 134.754L27.71 134.754L27.71 132.754ZM14.9 132.754C8.80833 132.754 5.23029 134.62 3.27168 137.757C1.38681 140.777 1.15998 144.764 1.15998 148.594L3.15998 148.594C3.15998 144.725 3.42316 141.292 4.96828 138.816C6.43968 136.459 9.23164 134.754 14.9 134.754L14.9 132.754ZM1.15998 148.594C1.15998 153.689 1.51442 156.42 2.02175 158.812L3.97822 158.397C3.50555 156.169 3.15998 153.58 3.15998 148.594L1.15998 148.594ZM38.91 207.343L38.91 208.343L39.91 208.343L39.91 207.343L38.91 207.343ZM38.91 190.543L39.91 190.543L39.91 189.543L38.91 189.543L38.91 190.543ZM38.91 182.983L38.91 183.983L39.91 183.983L39.91 182.983L38.91 182.983ZM38.91 166.183L39.91 166.183L39.91 165.183L38.91 165.183L38.91 166.183ZM4.88998 169.893L4.15838 169.211L4.15037 169.22L4.14257 169.229L4.88998 169.893ZM8.45998 190.543L8.45998 191.543L8.85993 189.626L8.45998 190.543ZM2.99998 190.543L2.99998 189.543L1.99998 189.543L1.99998 190.543L2.99998 190.543ZM2.99998 207.343L1.99998 207.343L1.99998 208.343L2.99998 208.343L2.99998 207.343ZM39.91 207.343L39.91 190.543L37.91 190.543L37.91 207.343L39.91 207.343ZM38.91 189.543L21.83 189.543L21.83 191.543L38.91 191.543L38.91 189.543ZM21.83 189.543C19.6888 189.543 18.4814 189.195 17.8226 188.718C17.2423 188.298 16.95 187.674 16.95 186.623L14.95 186.623C14.95 188.092 15.3926 189.428 16.6499 190.338C17.8286 191.191 19.5612 191.543 21.83 191.543L21.83 189.543ZM16.95 186.623C16.95 185.638 17.2581 185.061 17.7621 184.687C18.3246 184.27 19.2944 183.983 20.85 183.983L20.85 181.983C19.1156 181.983 17.6354 182.291 16.5704 183.081C15.4469 183.915 14.95 185.157 14.95 186.623L16.95 186.623ZM20.85 183.983L38.91 183.983L38.91 181.983L20.85 181.983L20.85 183.983ZM39.91 182.983L39.91 166.183L37.91 166.183L37.91 182.983L39.91 182.983ZM38.91 165.183L17.7 165.183L17.7 167.183L38.91 167.183L38.91 165.183ZM17.7 165.183C12.1018 165.183 7.34787 165.788 4.15838 169.211L5.62159 170.575C8.1721 167.837 12.0982 167.183 17.7 167.183L17.7 165.183ZM4.14257 169.229C2.24957 171.358 1.15998 174.846 1.15998 178.643L3.15998 178.643C3.15998 175.16 4.1704 172.208 5.63739 170.557L4.14257 169.229ZM1.15998 178.643C1.15998 184.995 3.73597 189.573 8.06004 191.459L8.85993 189.626C5.484 188.153 3.15998 184.47 3.15998 178.643L1.15998 178.643ZM8.45998 189.543L2.99998 189.543L2.99998 191.543L8.45998 191.543L8.45998 189.543ZM1.99998 190.543L1.99998 207.343L3.99998 207.343L3.99998 190.543L1.99998 190.543ZM2.99998 208.343L38.91 208.343L38.91 206.343L2.99998 206.343L2.99998 208.343ZM24.14 270.034L24.0308 271.028L25.14 271.15L25.14 270.034L24.14 270.034ZM24.14 251.414L25.14 251.414L25.14 250.585L24.3243 250.432L24.14 251.414ZM30.65 251.204L30.443 250.226L29.65 250.394L29.65 251.204L30.65 251.204ZM30.65 269.824L29.65 269.824L29.65 270.918L30.7395 270.82L30.65 269.824ZM25.14 270.034L25.14 251.414L23.14 251.414L23.14 270.034L25.14 270.034ZM24.3243 250.432C22.829 250.151 21.4761 249.461 20.4954 248.295C19.5188 247.133 18.84 245.415 18.84 242.944L16.84 242.944C16.84 245.794 17.6311 247.996 18.9646 249.582C20.2938 251.163 22.091 252.048 23.9557 252.397L24.3243 250.432ZM18.84 242.944C18.84 240.395 19.7405 238.417 21.2179 237.068C22.7056 235.71 24.8638 234.914 27.5 234.914L27.5 232.914C24.4662 232.914 21.7943 233.834 19.8696 235.591C17.9344 237.357 16.84 239.894 16.84 242.944L18.84 242.944ZM27.5 234.914C29.8423 234.914 32.0135 235.582 33.5798 236.888C35.1207 238.172 36.16 240.14 36.16 242.944L38.16 242.944C38.16 239.589 36.8893 237.042 34.8602 235.351C32.8565 233.682 30.1976 232.914 27.5 232.914L27.5 234.914ZM36.16 242.944C36.16 245.265 35.5041 246.891 34.5177 248.017C33.5223 249.153 32.1095 249.874 30.443 250.226L30.8569 252.183C32.8305 251.765 34.6727 250.876 36.0223 249.335C37.3809 247.783 38.16 245.663 38.16 242.944L36.16 242.944ZM29.65 251.204L29.65 269.824L31.65 269.824L31.65 251.204L29.65 251.204ZM30.7395 270.82C37.1947 270.24 43.1229 267.515 47.4373 262.771C51.7557 258.023 54.4 251.315 54.4 242.874L52.4 242.874C52.4 250.884 49.8993 257.091 45.9577 261.425C42.0121 265.764 36.5652 268.289 30.5605 268.828L30.7395 270.82ZM54.4 242.874C54.4 225.148 41.6776 214.714 27.5 214.714L27.5 216.714C40.6224 216.714 52.4 226.301 52.4 242.874L54.4 242.874ZM27.5 214.714C13.317 214.714 0.59998 225.153 0.599979 243.084L2.59998 243.084C2.59998 226.296 14.3829 216.714 27.5 216.714L27.5 214.714ZM0.599979 243.084C0.599978 251.564 3.2818 258.219 7.5908 262.931C11.8935 267.635 17.7615 270.34 24.0308 271.028L24.2492 269.04C18.4084 268.399 13.0065 265.889 9.06666 261.581C5.13316 257.28 2.59998 251.125 2.59998 243.084L0.599979 243.084ZM18.05 308.146L18.05 309.146L19.05 309.146L19.05 308.146L18.05 308.146ZM18.05 296.526L18.05 295.526L17.05 295.526L17.05 296.526L18.05 296.526ZM52 296.526L52 297.526L53 297.526L53 296.526L52 296.526ZM52 278.676L53 278.676L53 277.676L52 277.676L52 278.676ZM2.99998 278.676L2.99998 277.676L1.99998 277.676L1.99998 278.676L2.99998 278.676ZM2.99998 308.146L1.99998 308.146L1.99998 309.146L2.99998 309.146L2.99998 308.146ZM19.05 308.146L19.05 296.526L17.05 296.526L17.05 308.146L19.05 308.146ZM18.05 297.526L52 297.526L52 295.526L18.05 295.526L18.05 297.526ZM53 296.526L53 278.676L51 278.676L51 296.526L53 296.526ZM52 277.676L2.99998 277.676L2.99998 279.676L52 279.676L52 277.676ZM1.99998 278.676L1.99998 308.146L3.99998 308.146L3.99998 278.676L1.99998 278.676ZM2.99998 309.146L18.05 309.146L18.05 307.146L2.99998 307.146L2.99998 309.146ZM39.19 335.095L40.19 335.095L40.19 334.095L39.19 334.095L39.19 335.095ZM39.19 350.425L38.19 350.425L38.19 351.425L39.19 351.425L39.19 350.425ZM52 350.425L52 351.425L53 351.425L53 350.425L52 350.425ZM52 317.245L53 317.245L53 316.245L52 316.245L52 317.245ZM2.99998 317.245L2.99998 316.245L1.99998 316.245L1.99998 317.245L2.99998 317.245ZM2.99998 350.425L1.99998 350.425L1.99998 351.425L2.99998 351.425L2.99998 350.425ZM15.81 350.425L15.81 351.425L16.81 351.425L16.81 350.425L15.81 350.425ZM15.81 335.095L15.81 334.095L14.81 334.095L14.81 335.095L15.81 335.095ZM21.27 335.095L22.27 335.095L22.27 334.095L21.27 334.095L21.27 335.095ZM21.27 350.425L20.27 350.425L20.27 351.425L21.27 351.425L21.27 350.425ZM33.38 350.425L33.38 351.425L34.38 351.425L34.38 350.425L33.38 350.425ZM33.38 335.095L33.38 334.095L32.38 334.095L32.38 335.095L33.38 335.095ZM38.19 335.095L38.19 350.425L40.19 350.425L40.19 335.095L38.19 335.095ZM39.19 351.425L52 351.425L52 349.425L39.19 349.425L39.19 351.425ZM53 350.425L53 317.245L51 317.245L51 350.425L53 350.425ZM52 316.245L2.99998 316.245L2.99998 318.245L52 318.245L52 316.245ZM1.99998 317.245L1.99998 350.425L3.99998 350.425L3.99998 317.245L1.99998 317.245ZM2.99998 351.425L15.81 351.425L15.81 349.425L2.99998 349.425L2.99998 351.425ZM16.81 350.425L16.81 335.095L14.81 335.095L14.81 350.425L16.81 350.425ZM15.81 336.095L21.27 336.095L21.27 334.095L15.81 334.095L15.81 336.095ZM20.27 335.095L20.27 350.425L22.27 350.425L22.27 335.095L20.27 335.095ZM21.27 351.425L33.38 351.425L33.38 349.425L21.27 349.425L21.27 351.425ZM34.38 350.425L34.38 335.095L32.38 335.095L32.38 350.425L34.38 350.425ZM33.38 336.095L39.19 336.095L39.19 334.095L33.38 334.095L33.38 336.095ZM2.99997 395.377L2.73685 394.412L1.99997 394.613L1.99997 395.377L2.99997 395.377ZM2.99997 415.467L1.99997 415.467L1.99997 416.934L3.36563 416.397L2.99997 415.467ZM52 396.217L52.3656 397.147L53 396.898L53 396.217L52 396.217ZM52 376.197L53 376.197L53 375.507L52.3552 375.262L52 376.197ZM2.99998 357.577L3.35519 356.642L1.99998 356.127L1.99998 357.577L2.99998 357.577ZM2.99997 376.967L1.99997 376.967L1.99997 377.73L2.73686 377.931L2.99997 376.967ZM8.38997 378.437L9.38997 378.437L9.38997 377.673L8.65309 377.472L8.38997 378.437ZM8.38997 393.907L8.65309 394.871L9.38997 394.67L9.38997 393.907L8.38997 393.907ZM36.67 386.207L36.9313 387.172L40.468 386.214L36.9352 385.242L36.67 386.207ZM20.64 390.547L19.64 390.547L19.64 391.853L20.9013 391.512L20.64 390.547ZM20.64 381.797L20.9052 380.832L19.64 380.484L19.64 381.797L20.64 381.797ZM1.99997 395.377L1.99997 415.467L3.99997 415.467L3.99997 395.377L1.99997 395.377ZM3.36563 416.397L52.3656 397.147L51.6343 395.286L2.63432 414.536L3.36563 416.397ZM53 396.217L53 376.197L51 376.197L51 396.217L53 396.217ZM52.3552 375.262L3.35519 356.642L2.64476 358.511L51.6448 377.131L52.3552 375.262ZM1.99998 357.577L1.99997 376.967L3.99997 376.967L3.99998 357.577L1.99998 357.577ZM2.73686 377.931L8.12686 379.401L8.65309 377.472L3.26309 376.002L2.73686 377.931ZM7.38997 378.437L7.38997 393.907L9.38997 393.907L9.38997 378.437L7.38997 378.437ZM8.12686 392.942L2.73685 394.412L3.26309 396.341L8.65309 394.871L8.12686 392.942ZM36.4086 385.241L20.3786 389.581L20.9013 391.512L36.9313 387.172L36.4086 385.241ZM21.64 390.547L21.64 381.797L19.64 381.797L19.64 390.547L21.64 390.547ZM20.3747 382.761L36.4047 387.171L36.9352 385.242L20.9052 380.832L20.3747 382.761ZM25.89 455.291L25.4101 454.413L25.89 456.291L25.89 455.291ZM52 441.011L52.4798 441.888L53 441.603L53 441.011L52 441.011ZM52 423.161L53 423.161L53 422.161L52 422.161L52 423.161ZM2.99997 423.161L2.99997 422.161L1.99997 422.161L1.99997 423.161L2.99997 423.161ZM2.99997 441.011L1.99997 441.011L1.99997 442.011L2.99997 442.011L2.99997 441.011ZM27.71 441.011L28.2103 441.876L31.4389 440.011L27.71 440.011L27.71 441.011ZM2.99997 455.291L2.49961 454.425L1.99997 454.713L1.99997 455.291L2.99997 455.291ZM2.99997 473.141L1.99997 473.141L1.99997 474.141L2.99997 474.141L2.99997 473.141ZM52 473.141L52 474.141L53 474.141L53 473.141L52 473.141ZM52 455.291L53 455.291L53 454.291L52 454.291L52 455.291ZM26.3698 456.168L52.4798 441.888L51.5201 440.133L25.4101 454.413L26.3698 456.168ZM53 441.011L53 423.161L51 423.161L51 441.011L53 441.011ZM52 422.161L2.99997 422.161L2.99997 424.161L52 424.161L52 422.161ZM1.99997 423.161L1.99997 441.011L3.99997 441.011L3.99997 423.161L1.99997 423.161ZM2.99997 442.011L27.71 442.011L27.71 440.011L2.99997 440.011L2.99997 442.011ZM27.2096 440.145L2.49961 454.425L3.50033 456.156L28.2103 441.876L27.2096 440.145ZM1.99997 455.291L1.99997 473.141L3.99997 473.141L3.99997 455.291L1.99997 455.291ZM2.99997 474.141L52 474.141L52 472.141L2.99997 472.141L2.99997 474.141ZM53 473.141L53 455.291L51 455.291L51 473.141L53 473.141ZM52 454.291L25.89 454.291L25.89 456.291L52 456.291L52 454.291Z" fill="#333333"/>
</svg>
